<svg width="131" height="22" viewBox="0 0 131 22" fill="none" xmlns="http://www.w3.org/2000/svg">
<g id="Frame" clip-path="url(#clip0_1088_4647)">
<path id="Vector" fill-rule="evenodd" clip-rule="evenodd" d="M5.35352 13.0613C5.35352 10.3661 5.35352 9.01847 5.87805 7.98903C6.33945 7.08346 7.07567 6.34725 7.98125 5.88586C9.0107 5.36133 10.3583 5.36133 13.0536 5.36133H16.9036C19.5989 5.36133 20.9465 5.36133 21.976 5.88586C22.8815 6.34725 23.6177 7.08346 24.0792 7.98903C24.6037 9.01847 24.6037 10.3661 24.6037 13.0613V14.1613C24.6037 16.8566 24.6037 18.2042 24.0792 19.2336C23.6177 20.1392 22.8815 20.8754 21.976 21.3368C20.9465 21.8613 19.5989 21.8613 16.9036 21.8613H9.75352C8.21343 21.8613 7.44332 21.8613 6.85505 21.5616C6.3376 21.2979 5.9169 20.8773 5.65325 20.3598C5.35352 19.7715 5.35352 19.0014 5.35352 17.4613V13.0613ZM12.2285 13.6113C12.2285 12.8519 12.8442 12.2363 13.6036 12.2363C14.363 12.2363 14.9786 12.8519 14.9786 13.6113V16.3613C14.9786 17.1207 14.363 17.7363 13.6036 17.7363C12.8442 17.7363 12.2285 17.1207 12.2285 16.3613V13.6113ZM19.1036 12.2363C18.3442 12.2363 17.7286 12.8519 17.7286 13.6113V16.3613C17.7286 17.1207 18.3442 17.7363 19.1036 17.7363C19.863 17.7363 20.4786 17.1207 20.4786 16.3613V13.6113C20.4786 12.8519 19.863 12.2363 19.1036 12.2363Z" fill="white"/>
<path id="Vector_2" fill-rule="evenodd" clip-rule="evenodd" d="M10.1594 1.20546C10.2531 1.95905 9.71815 2.64592 8.96456 2.73964C8.54915 2.79129 8.21546 2.86157 7.92002 2.95363C5.5472 3.69301 3.68915 5.55105 2.94975 7.92385C2.85769 8.21928 2.78741 8.55297 2.73576 8.96838C2.64204 9.72196 1.95516 10.2569 1.20156 10.1632C0.44797 10.0695 -0.0869674 9.38261 0.00674785 8.62903C0.0740535 8.08783 0.173667 7.5889 0.32424 7.1057C1.33251 3.87008 3.86622 1.3364 7.10187 0.328143C7.58507 0.177571 8.084 0.077959 8.62521 0.010654C9.3788 -0.0830603 10.0657 0.451872 10.1594 1.20546Z" fill="white"/>
<path id="Vector_3" d="M37.3682 8.99902C35.3854 8.99902 33.5951 10.231 33.5951 12.079C33.5951 13.8115 35.1929 14.389 36.7714 14.62C37.8109 14.774 38.1959 14.851 38.1959 15.236C38.1959 15.5825 37.8879 15.7558 37.4067 15.7558C36.1939 15.7558 35.7512 15.313 34.7502 15.313C33.8839 15.313 33.5566 15.9483 33.5566 16.7568C33.5566 17.623 35.1159 18.239 37.0794 18.239C39.6782 18.239 41.045 17.0648 41.045 15.159C41.045 13.388 39.7167 12.695 37.6569 12.4063C36.9832 12.31 36.4249 12.31 36.4249 11.9058C36.4249 11.54 36.8869 11.3668 37.4644 11.3668C38.1189 11.3668 38.9274 11.7518 39.5627 11.7518C40.3905 11.7518 40.737 11.2128 40.737 10.4235C40.737 9.88452 40.3905 9.57652 39.9862 9.40327C39.2739 9.09527 38.4654 8.99902 37.3682 8.99902Z" fill="white"/>
<path id="Vector_4" d="M42.6653 11.8301H43.3198C43.3391 12.7348 43.3006 13.6781 43.3006 14.5828C43.3006 17.1238 44.6481 18.1633 46.4191 18.1633C47.4201 18.1633 47.8244 18.0863 48.2671 17.7783C48.6136 17.5473 48.7869 17.2201 48.7869 16.4886C48.7869 15.8726 48.3826 15.2566 47.6896 15.2566C47.4009 15.2566 47.3239 15.3528 46.9389 15.3528C46.4384 15.3528 46.3036 14.7753 46.3036 14.3133V11.8108H47.6319C48.3249 11.8108 48.6714 11.1948 48.6714 10.4826C48.6714 9.59708 48.2094 9.15433 47.4201 9.17358H46.3229C46.3421 8.51908 46.3614 8.07633 46.3614 7.71059C46.3614 6.97909 45.8801 6.51709 45.0909 6.51709C43.9936 6.51709 43.4161 7.09459 43.3776 8.17258L43.3391 9.19283H42.7423C42.0301 9.19283 41.5488 9.75108 41.5488 10.4826C41.5488 11.2911 41.8568 11.8301 42.6653 11.8301Z" fill="white"/>
<path id="Vector_5" d="M50.1615 10.4822V12.2148C50.1615 13.5238 50.123 15.2178 50.123 16.7C50.123 17.8358 50.7968 18.1438 51.6631 18.1438C52.5293 18.1438 53.2416 17.7973 53.2608 16.8925C53.2993 16.161 53.2223 15.1215 53.2223 14.4093C53.2223 12.542 53.9731 11.9645 54.9933 11.9645H55.2436C56.0714 11.9645 56.4564 11.1753 56.4564 10.4438C56.4564 9.44275 55.9944 9 55.1281 9C54.2811 9 53.3378 9.5775 52.9913 10.3668L52.8566 9.8855C52.7026 9.3465 52.2983 9.077 51.7016 9.077C50.739 9.077 50.1615 9.55825 50.1615 10.4822Z" fill="white"/>
<path id="Vector_6" d="M60.1332 14.4094C62.501 14.3901 63.7523 14.3516 64.1373 14.3516C65.4271 14.3324 65.6966 13.8126 65.6966 12.6576C65.6966 10.8096 64.041 9.00012 61.577 9.00012C58.9782 9.00012 56.9377 11.0021 56.9377 13.8319C56.9377 16.2766 58.959 18.2209 61.5 18.2209C63.0593 18.2209 63.9255 17.9514 64.5993 17.5471C65.0613 17.2776 65.3115 16.8541 65.3115 16.3921C65.3115 15.6029 64.7533 14.9099 64.0603 14.9099C63.7138 14.9099 63.4058 15.0061 63.0785 15.1794C62.7705 15.3526 62.2315 15.5259 61.6925 15.5259C61.0573 15.5259 60.268 15.1601 60.1332 14.4094ZM61.5385 11.4449C62.2123 11.4449 62.732 11.8684 62.732 12.4266C62.732 12.5036 62.6165 12.5229 62.501 12.5229C61.731 12.5421 60.8455 12.5806 60.114 12.5806C60.1717 12.0031 60.7685 11.4449 61.5385 11.4449Z" fill="white"/>
<path id="Vector_7" d="M76.3742 11.945L76.3935 10.4627C76.3935 9.57724 75.9122 9.09599 74.9305 9.09599C74.4492 9.09599 74.0257 9.23075 73.7755 9.57725C73.6792 9.712 73.6022 9.866 73.5445 10.0777C73.0825 9.42325 72.2739 9.0575 71.3884 9.0575C68.8089 9.0575 66.8261 10.867 66.8261 13.8122C66.8261 16.3147 68.4817 18.182 71.1574 18.182C72.1777 18.182 73.0055 17.7007 73.4675 16.95C73.7177 17.8162 74.1412 18.1242 74.815 18.1242C75.7005 18.1242 76.432 17.8932 76.432 16.8152C76.3935 16.1607 76.3742 15.5062 76.3742 14.8517V11.945ZM70.0217 13.7352C70.0217 12.4455 70.6954 11.7332 71.6772 11.7332C72.5434 11.7332 73.3327 12.3877 73.3327 13.6005C73.3327 14.8132 72.5242 15.5447 71.5809 15.5447C70.6762 15.5447 70.0217 14.7555 70.0217 13.7352Z" fill="white"/>
<path id="Vector_8" d="M78.5296 13.2145L78.5104 15.5245C78.4719 16.4293 78.4911 16.5063 78.4911 16.7565C78.4911 17.8153 79.2806 18.1233 80.031 18.1233C80.8976 18.1233 81.6677 17.7575 81.6677 16.8913V13.6188C81.648 12.6563 81.8602 11.6168 82.957 11.6168C83.6885 11.6168 84.035 12.4253 84.035 13.099C84.0547 14.9085 83.9965 15.4475 83.9965 16.872C83.9965 17.6998 84.6125 18.104 85.4981 18.1233C86.3451 18.1425 87.0766 17.796 87.1151 16.949C87.1347 16.333 87.1347 15.64 87.1347 15.101C87.1347 14.3118 87.1347 13.6765 87.1536 12.8873C87.1536 12.1943 87.7122 11.6553 88.3667 11.6553C89.1556 11.6553 89.3481 12.3483 89.3481 13.099C89.3481 14.6583 89.2907 15.7748 89.2907 16.8913C89.2907 17.642 89.9067 18.1233 90.8692 18.1233C91.4468 18.1233 92.3896 17.9693 92.4478 16.9875C92.4863 16.2175 92.4863 15.5245 92.4863 14.8508L92.4666 12.6948C92.4666 10.4618 91.3886 8.96027 88.9442 8.99877C88.0202 9.01802 86.9226 9.59552 86.3647 10.3848C85.8831 9.57627 85.0557 8.99877 83.7852 8.99877C82.8612 8.99877 81.879 9.61477 81.5325 10.25L81.4555 9.90352C81.34 9.40302 80.8395 8.99877 80.1465 8.99877C79.0685 8.99877 78.5104 9.48002 78.5104 10.3655C78.5104 10.9815 78.568 11.405 78.5296 13.2145Z" fill="white"/>
<path id="Vector_9" d="M94.5868 5.57294C94.5483 8.74918 94.4901 12.9457 94.5671 16.0257C94.5868 17.7582 95.2798 18.2394 96.3578 18.1239C97.4932 18.0084 97.8208 17.5849 97.8593 16.6609C97.8782 16.0257 97.8208 15.2942 97.8208 14.4857C97.8208 11.4827 97.8208 8.55668 97.8782 5.57294C97.8978 4.61044 97.2433 4.14844 96.2227 4.14844C95.3371 4.14844 94.6056 4.59119 94.5868 5.57294Z" fill="white"/>
<path id="Vector_10" d="M109.027 11.945L109.045 10.4627C109.045 9.57724 108.565 9.09599 107.582 9.09599C107.102 9.09599 106.678 9.23075 106.427 9.57725C106.331 9.712 106.254 9.866 106.196 10.0777C105.734 9.42325 104.926 9.0575 104.04 9.0575C101.461 9.0575 99.4784 10.867 99.4784 13.8122C99.4784 16.3147 101.134 18.182 103.809 18.182C104.83 18.182 105.657 17.7007 106.119 16.95C106.37 17.8162 106.793 18.1242 107.467 18.1242C108.352 18.1242 109.084 17.8932 109.084 16.8152C109.045 16.1607 109.027 15.5062 109.027 14.8517V11.945ZM102.674 13.7352C102.674 12.4455 103.347 11.7332 104.329 11.7332C105.195 11.7332 105.985 12.3877 105.985 13.6005C105.985 14.8132 105.176 15.5447 104.233 15.5447C103.328 15.5447 102.674 14.7555 102.674 13.7352Z" fill="white"/>
<path id="Vector_11" d="M111.186 5.49486L111.224 13.2334L111.167 16.4866C111.147 17.4876 111.513 18.0651 112.399 18.1036C113.188 18.1421 113.727 17.9111 113.9 17.1796L113.958 16.9294C114.401 17.6994 115.344 18.1999 116.326 18.1999C119.059 18.1999 120.907 16.1016 120.907 13.4836C120.907 11.0004 119.175 8.99835 116.634 8.99835C115.671 8.99835 114.766 9.2871 114.266 10.0764C114.266 10.0571 114.266 9.7876 114.324 5.37936C114.343 4.24361 113.534 4.03186 112.687 4.03186C111.84 4.03186 111.205 4.43611 111.186 5.49486ZM117.75 13.5029C117.75 14.6964 116.865 15.5626 115.96 15.5626C115.094 15.5626 114.304 14.7926 114.304 13.6569C114.304 12.3094 115.132 11.7126 116.114 11.7126C116.961 11.7126 117.75 12.3864 117.75 13.5029Z" fill="white"/>
<path id="Vector_12" d="M126.003 9C124.021 9 122.23 10.232 122.23 12.08C122.23 13.8125 123.828 14.39 125.407 14.621C126.446 14.775 126.831 14.852 126.831 15.237C126.831 15.5835 126.523 15.7568 126.041 15.7568C124.829 15.7568 124.386 15.314 123.385 15.314C122.519 15.314 122.191 15.9492 122.191 16.7577C122.191 17.624 123.751 18.24 125.715 18.24C128.313 18.24 129.68 17.0658 129.68 15.16C129.68 13.389 128.351 12.696 126.292 12.4073C125.618 12.311 125.06 12.311 125.06 11.9067C125.06 11.541 125.522 11.3678 126.1 11.3678C126.754 11.3678 127.563 11.7527 128.197 11.7527C129.026 11.7527 129.372 11.2137 129.372 10.4245C129.372 9.8855 129.026 9.5775 128.621 9.40425C127.909 9.09625 127.101 9 126.003 9Z" fill="white"/>
</g>
<defs>
<clipPath id="clip0_1088_4647">
<rect width="130.43" height="22" fill="white"/>
</clipPath>
</defs>
</svg>
