<svg width="39" height="40" viewBox="0 0 39 40" fill="none" xmlns="http://www.w3.org/2000/svg">
<g id="Group" style="mix-blend-mode:luminosity">
<path id="Vector" d="M38.886 19.2476C38.8559 18.8561 38.8258 18.4946 38.7656 18.1332C38.7053 17.7718 38.615 17.3802 38.5246 17.0188C38.4342 16.6573 38.3137 16.2959 38.1933 15.9345C38.0728 15.573 37.9222 15.2417 37.7415 14.8803C37.5607 14.549 37.38 14.1875 37.1993 13.8863C36.9884 13.555 36.7776 13.2538 36.5366 12.9225C36.2957 12.6213 36.0547 12.3201 35.7836 12.0189C35.5125 11.7177 35.2414 11.4467 34.9402 11.2057C34.639 10.9346 34.3378 10.6937 34.0065 10.4527C33.6751 10.2118 33.3438 10.0009 32.9824 9.79008C32.6209 9.57924 32.2595 9.39852 31.898 9.24793C31.7474 9.18769 31.5968 9.09733 31.4161 9.03709C31.2052 8.31422 30.9341 7.59135 30.6028 6.8986C30.2414 6.17573 29.8197 5.48298 29.3377 4.85047C28.8558 4.18784 28.2835 3.58545 27.6811 3.07342C27.0485 2.53126 26.3859 2.01923 25.663 1.62768C25.0003 1.23612 24.2473 0.904807 23.434 0.633731C22.6509 0.362655 21.8678 0.181938 21.0545 0.0915791C20.2713 0.00122039 19.4882 -0.0288992 18.6749 0.03134C17.8918 0.0915791 17.1087 0.212057 16.3255 0.422894C15.5725 0.633731 14.8195 0.904807 14.0966 1.23612C13.3737 1.59756 12.6809 2.01923 12.0483 2.50114C11.3857 2.98306 10.7833 3.55533 10.2712 4.15772C9.72904 4.79023 9.21699 5.45286 8.82541 6.17573C8.40372 6.8986 8.07239 7.65159 7.80131 8.46482C7.77118 8.5853 7.71094 8.70577 7.68082 8.82625C7.31937 8.94673 6.98804 9.09733 6.62659 9.27804C6.29526 9.45876 5.93381 9.63948 5.6326 9.8202C5.30127 10.031 5.00006 10.2419 4.66874 10.4828C4.36753 10.7238 4.06632 10.9647 3.76511 11.2358C3.4639 11.5069 3.19281 11.778 2.95185 12.0792C2.68076 12.3804 2.43979 12.6816 2.19882 13.0129C1.95786 13.3442 1.74701 13.6755 1.53616 14.0369C1.38556 14.3381 1.20483 14.6996 1.02411 15.061C0.873505 15.4224 0.722901 15.7839 0.602417 16.1754C0.481934 16.5369 0.36145 16.9284 0.301209 17.32C0.210846 17.7115 0.150604 18.073 0.0903626 18.4645C0.0301209 18.8259 0 19.2175 0 19.6091C0 20.0006 0 20.362 0.0301209 20.7536C0.0602417 21.115 0.0903626 21.5066 0.150604 21.868C0.210846 22.2295 0.301209 22.621 0.391571 22.9824C0.481934 23.3439 0.602417 23.7053 0.722901 24.0668C0.873505 24.3981 1.02411 24.7595 1.20483 25.0908C1.38556 25.4221 1.56629 25.7836 1.74701 26.0848C1.95786 26.4161 2.1687 26.7173 2.40967 27.0486C2.65064 27.3498 2.8916 27.651 3.16269 27.9522C3.43378 28.2534 3.70487 28.5244 4.00608 28.7654C4.30728 29.0365 4.60849 29.2774 4.93982 29.5184C5.27115 29.7593 5.60248 29.9702 5.96393 30.181C6.29526 30.3919 6.65671 30.5726 7.04828 30.7232C7.19889 30.7834 7.34949 30.8738 7.53022 30.934C7.74106 31.6569 8.01215 32.3797 8.34348 33.0725C8.70493 33.7954 9.12662 34.4881 9.57844 35.1206C10.0604 35.7833 10.6327 36.3857 11.2351 36.8977C11.8676 37.4398 12.5303 37.9519 13.2532 38.3434C13.9761 38.7651 14.7291 39.0964 15.5424 39.3675C16.3255 39.6386 17.1087 39.8193 17.9219 39.9096C18.434 39.9699 18.946 40 19.428 40C19.7292 40 20.0003 40 20.3015 39.9699C21.0846 39.9096 21.8678 39.7892 22.6208 39.5783C23.3738 39.3675 24.1268 39.0964 24.8497 38.735C25.5726 38.3735 26.2654 37.9519 26.8979 37.47C27.5606 36.988 28.163 36.4158 28.6751 35.8134C29.2172 35.1809 29.7293 34.5182 30.1209 33.7954C30.5426 33.0725 30.8739 32.3195 31.145 31.5063C31.1751 31.3858 31.2353 31.2653 31.2655 31.1448C31.6269 31.0244 31.9582 30.8738 32.3197 30.6931C32.651 30.5123 32.9824 30.3316 33.3137 30.1509C33.645 29.9401 33.9462 29.7292 34.2775 29.5184C34.5788 29.2774 34.88 29.0365 35.1812 28.7654C35.4824 28.4943 35.7535 28.2232 35.9944 27.9221C36.2655 27.6209 36.5065 27.3197 36.7475 26.9883C36.9884 26.657 37.1993 26.3257 37.4101 25.9643C37.621 25.6028 37.8017 25.2414 37.9523 24.88C38.1029 24.5185 38.2535 24.1571 38.374 23.7656C38.4945 23.4041 38.615 23.0126 38.6752 22.621C38.7656 22.2596 38.8258 21.868 38.886 21.4765C38.9463 21.0849 38.9764 20.7235 38.9764 20.3319C38.9162 20.0006 38.9162 19.6392 38.886 19.2476Z" fill="url(#paint0_linear_1088_4699)"/>
<path id="Vector_2" d="M27.3443 25.4823C27.1936 24.9703 27.0129 24.4884 26.8021 24.0064C26.5611 23.5245 26.29 23.0727 25.9587 22.6511C25.6274 22.2294 25.2659 21.8077 24.8442 21.4463C24.4225 21.0848 23.9707 20.7535 23.4888 20.4825L17.0128 16.7476C16.7116 16.5669 16.4405 16.3862 16.1694 16.1452C15.9284 15.9344 15.6875 15.6934 15.5067 15.4224C15.2959 15.1513 15.1453 14.8802 14.9947 14.579C14.8441 14.2778 14.7537 13.9766 14.6634 13.6754C14.573 13.3742 14.5128 13.0429 14.5128 12.7116C14.4826 12.3803 14.5128 12.049 14.5429 11.7478C14.573 11.4165 14.6634 11.0852 14.7537 10.784C14.8742 10.4526 14.9947 10.1514 15.1754 9.85025C15.3561 9.54906 15.5369 9.27798 15.7778 9.0069C15.9887 8.76595 16.2296 8.52499 16.5007 8.34427C16.7718 8.13344 17.0429 7.98284 17.3441 7.83224C17.6453 7.68164 17.9465 7.59128 18.2477 7.50093C18.549 7.41057 18.8803 7.35033 19.2116 7.35033C19.5429 7.32021 19.8743 7.35033 20.1755 7.38045C20.5068 7.41057 20.8381 7.50093 21.1393 7.59128C21.4707 7.71176 21.7719 7.83224 22.0731 8.01296C22.3743 8.19368 22.6454 8.37439 22.9165 8.61535C23.1574 8.82619 23.3984 9.06714 23.5791 9.33822C23.7599 9.60929 23.9406 9.88037 24.0912 10.1816C24.1816 10.3322 24.2418 10.5129 24.302 10.6936C24.3924 10.6635 24.4828 10.6334 24.543 10.6334C25.1454 10.4828 25.778 10.3623 26.4105 10.3322C26.772 10.302 27.1334 10.302 27.525 10.3322C27.525 10.3322 27.525 10.3322 27.525 10.302C27.3744 9.79001 27.1936 9.3081 26.9828 8.82619C26.7418 8.34427 26.4707 7.89248 26.1394 7.47081C25.8081 7.04913 25.4466 6.62746 25.0249 6.26602C24.6033 5.90459 24.1514 5.57327 23.6695 5.3022C23.1876 5.03112 22.6755 4.79017 22.1635 4.60945C21.6514 4.42873 21.1092 4.30825 20.5671 4.24801C20.055 4.18777 19.5128 4.15765 18.9706 4.21789C18.4586 4.24801 17.9164 4.33837 17.4044 4.48897C16.8923 4.63957 16.4104 4.82029 15.9284 5.03112C15.4465 5.27208 14.9947 5.54315 14.573 5.87447C14.1513 6.20578 13.7296 6.56722 13.3682 6.98889C13.0067 7.41057 12.6754 7.86236 12.4043 8.34427C12.1332 8.82619 11.8922 9.33822 11.7115 9.85025C11.5308 10.3623 11.4103 10.9044 11.3501 11.4466C11.2898 11.9586 11.2597 12.5008 11.3199 13.0429C11.3501 13.555 11.4404 14.0971 11.591 14.6091C11.7416 15.1212 11.9224 15.6031 12.1332 16.085C12.3742 16.5669 12.6453 17.0187 12.9766 17.4404C13.3079 17.8621 13.6694 18.2837 14.0911 18.6452C14.5128 19.0066 14.9646 19.3379 15.4465 19.609L21.9225 23.3438C22.2237 23.5245 22.4948 23.7052 22.7659 23.9462C23.0068 24.157 23.2478 24.398 23.4285 24.6691C23.6093 24.9401 23.79 25.2112 23.9406 25.5124C24.0912 25.8136 24.2117 26.1148 24.2719 26.416C24.3623 26.7172 24.4225 27.0485 24.4225 27.3798C24.4526 27.7111 24.4225 28.0425 24.3924 28.3437C24.3623 28.675 24.2719 29.0063 24.1816 29.3075C24.0611 29.6388 23.9406 29.94 23.7599 30.2412C23.5791 30.5424 23.3984 30.8135 23.1575 31.0845C22.9466 31.3255 22.7056 31.5665 22.4345 31.7472C22.1635 31.9279 21.8924 32.1086 21.5912 32.2592C21.29 32.4098 20.9887 32.5002 20.6875 32.5905C20.3863 32.6809 20.055 32.7411 19.7237 32.7411C19.3923 32.7712 19.061 32.7411 18.7598 32.711C18.4285 32.6809 18.0971 32.5905 17.7959 32.5002C17.4646 32.3797 17.1634 32.2592 16.8622 32.0785C16.561 31.8978 16.2899 31.717 16.0188 31.4761C15.7778 31.2653 15.5369 31.0243 15.3561 30.7532C15.1453 30.4821 14.9947 30.2111 14.8441 29.9099C14.7537 29.7593 14.6935 29.5786 14.6332 29.3978C14.5429 29.428 14.4525 29.4581 14.3923 29.4581C13.7899 29.6087 13.1573 29.7292 12.5248 29.7593C12.2838 29.7894 12.073 29.7894 11.832 29.7894C11.6814 29.7894 11.5609 29.7894 11.4103 29.7894C11.5609 30.3014 11.7416 30.7833 11.9525 31.2653C12.1935 31.7472 12.4645 32.199 12.7959 32.6206C13.1272 33.0423 13.4886 33.464 13.9103 33.8254C14.332 34.1869 14.7838 34.5182 15.2658 34.7892C15.7477 35.0603 16.2598 35.3013 16.8019 35.482C17.314 35.6627 17.8562 35.7832 18.3984 35.8434C18.7297 35.8735 19.061 35.9037 19.4225 35.9037C19.6032 35.9037 19.814 35.9037 19.9948 35.8735C20.5068 35.8434 21.049 35.7531 21.561 35.6025C22.0731 35.4519 22.555 35.2712 23.037 35.0603C23.5189 34.8194 23.9707 34.5483 24.3924 34.217C24.8141 33.8857 25.2358 33.5242 25.5972 33.1025C25.9587 32.6809 26.29 32.2291 26.5611 31.7472C26.8322 31.2653 27.0732 30.7532 27.2539 30.2412C27.4346 29.7292 27.5551 29.187 27.6153 28.6449C27.6756 28.1328 27.7057 27.5907 27.6455 27.0485C27.5551 26.5365 27.4647 25.9943 27.3443 25.4823Z" fill="white"/>
<path id="Vector_3" d="M12.4085 28.1325C12.9206 28.1024 13.4627 28.0121 13.9748 27.8615C14.4869 27.7109 14.9688 27.5302 15.4507 27.3193C15.9327 27.0784 16.3845 26.8073 16.8062 26.476C17.2279 26.1447 17.6495 25.7832 18.011 25.3615C18.3724 24.9399 18.7038 24.4881 18.9749 24.0062L19.246 23.5243L16.4748 21.9279L16.2037 22.4098C16.023 22.711 15.8423 22.9821 15.6013 23.2532C15.3905 23.4941 15.1495 23.7351 14.8784 23.9158C14.6073 24.1266 14.3363 24.2772 14.035 24.4278C13.7338 24.5784 13.4326 24.6688 13.1314 24.7592C12.8302 24.8495 12.4989 24.9098 12.1675 24.9098C11.8362 24.9399 11.5049 24.9098 11.2037 24.8796C10.8724 24.8796 10.541 24.8194 10.2398 24.6989C9.90848 24.5784 9.60727 24.458 9.30607 24.2772C9.00486 24.0965 8.73377 23.9158 8.46268 23.6749C8.22171 23.464 7.98075 23.2231 7.80002 22.952C7.58918 22.6809 7.43857 22.4098 7.28797 22.1086C7.13736 21.8074 7.047 21.5062 6.95664 21.205C6.86627 20.9039 6.80603 20.5725 6.80603 20.2412C6.77591 19.9099 6.80603 19.5786 6.83615 19.2774C6.86627 18.9461 6.95664 18.6148 7.047 18.3136C7.16748 17.9823 7.28797 17.6811 7.46869 17.3799C7.64942 17.0787 7.83014 16.8076 8.07111 16.5365C8.28196 16.2956 8.52292 16.0546 8.79401 15.8739C9.0651 15.663 9.33619 15.5125 9.63739 15.3619C9.788 15.2715 9.96872 15.2113 10.1495 15.151C10.1193 15.0607 10.0892 14.9703 10.0892 14.9101C9.9386 14.3077 9.81812 13.6752 9.788 13.0426C9.75788 12.6812 9.75788 12.3198 9.788 11.9282C9.788 11.9282 9.788 11.9282 9.75788 11.9282C9.24582 12.0788 8.76389 12.2595 8.28196 12.4704C7.80002 12.7113 7.34821 12.9824 6.92652 13.3137C6.50482 13.645 6.08313 14.0065 5.72168 14.4281C5.36023 14.8498 5.0289 15.3016 4.75781 15.7835C4.48673 16.2654 4.24576 16.7775 4.06503 17.2895C3.88431 17.8015 3.76382 18.3437 3.70358 18.8858C3.64334 19.3979 3.61322 19.94 3.67346 20.4822C3.70358 20.9942 3.79395 21.5364 3.94455 22.0484C4.09515 22.5604 4.27588 23.0423 4.48673 23.5243C4.72769 24.0062 4.99878 24.458 5.33011 24.8796C5.66144 25.3013 6.02289 25.723 6.44458 26.0844C6.86627 26.4459 7.31809 26.7772 7.80002 27.0482C8.28196 27.3193 8.79401 27.5603 9.30607 27.741C9.81812 27.9217 10.3603 28.0422 10.9025 28.1024C11.3543 28.1627 11.8663 28.1627 12.4085 28.1325Z" fill="white"/>
<path id="Vector_4" d="M35.2996 19.4874C35.2695 18.9754 35.1791 18.4332 35.0285 17.9212C34.8779 17.4092 34.6972 16.9272 34.4863 16.4453C34.2453 15.9634 33.9743 15.5116 33.6429 15.0899C33.3116 14.6683 32.9501 14.2466 32.5285 13.8852C32.1068 13.5237 31.6549 13.1924 31.173 12.9213C30.6911 12.6503 30.179 12.4093 29.667 12.2286C29.1549 12.0479 28.6127 11.9274 28.0706 11.8672C27.5585 11.8069 27.0163 11.7768 26.4742 11.837C25.9621 11.8672 25.4199 11.9575 24.9079 12.1081C24.3958 12.2587 23.9139 12.4394 23.432 12.6503C22.95 12.8912 22.4982 13.1623 22.0765 13.4936C21.6548 13.8249 21.2331 14.1864 20.8717 14.608C20.5102 15.0297 20.1789 15.4815 19.9078 15.9634L19.6367 16.4453L22.4078 18.0417L22.6789 17.5598C22.8597 17.2586 23.0404 16.9875 23.2813 16.7164C23.4922 16.4754 23.7332 16.2345 24.0042 16.0538C24.2753 15.8731 24.5464 15.6923 24.8476 15.5417C25.1488 15.3911 25.45 15.3008 25.7513 15.2104C26.0525 15.1201 26.3838 15.0598 26.7151 15.0598C27.0465 15.0297 27.3778 15.0598 27.679 15.0899C28.0103 15.1201 28.3417 15.2104 28.6429 15.3008C28.9742 15.4213 29.2754 15.5417 29.5766 15.7225C29.8778 15.9032 30.1489 16.0839 30.42 16.3248C30.661 16.5357 30.9019 16.7766 31.0827 17.0477C31.2935 17.3188 31.4441 17.5899 31.5947 17.8911C31.7453 18.1923 31.8357 18.4935 31.926 18.7947C32.0164 19.0958 32.0766 19.4272 32.0766 19.7585C32.1068 20.0898 32.0766 20.4211 32.0465 20.7223C32.0164 21.0536 31.926 21.3849 31.8357 21.6861C31.7152 22.0174 31.5947 22.3186 31.414 22.6198C31.2333 22.921 31.0525 23.1921 30.8116 23.4632C30.6007 23.7041 30.3598 23.9451 30.0887 24.1258C29.8176 24.3065 29.5465 24.4873 29.2453 24.6378C29.0947 24.7282 28.9139 24.7884 28.7332 24.8487C28.7633 24.939 28.7935 25.0294 28.7935 25.0896C28.9441 25.692 29.0646 26.3245 29.0947 26.9571C29.1248 27.3185 29.1248 27.6799 29.0947 28.0715C29.0947 28.0715 29.0947 28.0715 29.1248 28.0715C29.6368 27.9209 30.1188 27.7402 30.6007 27.5293C31.0827 27.2884 31.5345 27.0173 31.9562 26.686C32.3778 26.3547 32.7995 25.9932 33.161 25.5716C33.5224 25.1499 33.8538 24.6981 34.1249 24.2162C34.3959 23.7343 34.6369 23.2222 34.8176 22.7102C34.9984 22.1982 35.1188 21.656 35.1791 21.1139C35.3297 20.5717 35.3598 20.0296 35.2996 19.4874Z" fill="white"/>
</g>
<defs>
<linearGradient id="paint0_linear_1088_4699" x1="0" y1="19.9944" x2="38.9247" y2="19.9944" gradientUnits="userSpaceOnUse">
<stop stop-color="#EB5724"/>
<stop offset="0.2576" stop-color="#EC5C23"/>
<stop offset="0.5721" stop-color="#EF6B22"/>
<stop offset="0.915" stop-color="#F48420"/>
<stop offset="0.9995" stop-color="#F58B1F"/>
</linearGradient>
</defs>
</svg>
