<svg width="99" height="26" viewBox="0 0 99 26" fill="none" xmlns="http://www.w3.org/2000/svg">
<g clip-path="url(#clip0_1088_4661)">
<path d="M22.188 3.80611C20.3708 1.98598 18.0544 0.746049 15.5321 0.243328C13.0098 -0.259394 10.395 -0.00228866 8.01887 0.982084C5.64276 1.96646 3.61222 3.63382 2.18439 5.77301C0.756551 7.91221 -0.00434636 10.427 -0.00194747 12.9989C-0.00194747 13.2449 -0.00194747 13.5027 0.0273384 13.7926V14.0034H4.61937C4.65451 14.2699 4.7043 14.5511 4.77751 14.882L4.79801 14.967C4.83022 15.1163 4.86537 15.2598 4.9093 15.4121C5.38084 17.0179 6.31978 18.447 7.60646 19.5172C8.89315 20.5875 10.4693 21.2504 12.1342 21.4216C13.799 21.5928 15.4771 21.2645 16.9547 20.4785C18.4322 19.6925 19.6423 18.4844 20.4308 17.0082L20.6095 16.6772H18.2666L18.1992 16.771C17.6062 17.5923 16.8267 18.2611 15.9248 18.7223C15.0228 19.1836 14.0243 19.4241 13.0112 19.4241C11.9982 19.4241 10.9997 19.1836 10.0977 18.7223C9.19579 18.2611 8.41626 17.5923 7.82324 16.771C7.48215 16.3051 7.20443 15.7959 6.99738 15.2569C6.94467 15.1163 6.90367 14.964 6.86267 14.8264L6.84217 14.759C6.76309 14.4662 6.70745 14.2319 6.66645 14.0034H21.3768L21.3973 13.7984C21.4207 13.529 21.4353 13.2596 21.4353 12.9989C21.4234 10.8547 20.5958 8.79546 19.1206 7.23931C17.6454 5.68317 15.6332 4.74683 13.4927 4.62046C11.3522 4.49409 9.24381 5.18715 7.59576 6.5589C5.9477 7.93065 4.88354 9.87825 4.61937 12.0062H2.06271C2.30465 9.30969 3.53198 6.79701 5.51004 4.94856C7.48809 3.10011 10.0781 2.0456 12.7847 1.98666C15.4914 1.92772 18.1248 2.86849 20.1814 4.62908C22.2381 6.38967 23.5736 8.84654 23.9327 11.5299C24.2918 14.2133 23.6492 16.9349 22.1279 19.1743C20.6065 21.4137 18.3131 23.0138 15.6862 23.6686C13.0593 24.3234 10.2832 23.9869 7.8887 22.7236C5.49423 21.4603 3.64941 19.3587 2.707 16.8207L2.65135 16.6743H0.528127L0.621842 16.9672C1.22277 18.84 2.24092 20.552 3.59957 21.9742C4.95822 23.3964 6.62193 24.4917 8.46535 25.1775C10.3088 25.8634 12.2838 26.1219 14.2416 25.9336C16.1995 25.7453 18.089 25.1151 19.7679 24.0905C21.4469 23.066 22.8714 21.6737 23.9341 20.0186C24.9968 18.3636 25.67 16.4889 25.903 14.5359C26.136 12.5829 25.9227 10.6025 25.2792 8.74386C24.6357 6.88524 23.5787 5.19692 22.188 3.80611ZM6.66645 12.0062C6.90736 10.5007 7.67695 9.13032 8.83709 8.14108C9.99722 7.15183 11.472 6.60844 12.9966 6.60844C14.5212 6.60844 15.996 7.15183 17.1561 8.14108C18.3162 9.13032 19.0858 10.5007 19.3267 12.0062H6.66645Z" fill="white"/>
<path d="M34.4015 13.6621C34.4015 15.6272 35.4411 16.8835 37.3301 16.8835C38.6187 16.8835 39.2952 16.5204 40.1064 15.7121L41.5707 17.0885C40.3992 18.26 39.2893 18.8721 37.2774 18.8721C34.4103 18.8721 32.1289 17.3609 32.1289 13.0002C32.1289 9.29558 34.0471 7.14307 36.9845 7.14307C40.0566 7.14307 41.8401 9.40101 41.8401 12.6547V13.668L34.4015 13.6621ZM39.2425 10.5022C39.0573 10.0604 38.7422 9.68542 38.3389 9.42701C37.9356 9.16861 37.4632 9.03901 36.9845 9.05543C36.5028 9.03911 36.0275 9.16845 35.6204 9.42655C35.2134 9.68465 34.8938 10.0595 34.7031 10.5022C34.4922 10.9936 34.3922 11.5256 34.4103 12.0602H39.5587C39.5713 11.5237 39.4632 10.9913 39.2425 10.5022Z" fill="white"/>
<path d="M48.5518 18.8584C45.9776 18.8584 43.4473 17.2799 43.4473 12.9866C43.4473 8.69326 45.9776 7.12939 48.5518 7.12939C50.1332 7.12939 51.2402 7.5804 52.3238 8.73133L50.7424 10.2688C50.019 9.47812 49.4567 9.18233 48.5518 9.18233C48.1428 9.17188 47.7371 9.25853 47.368 9.43518C46.9989 9.61182 46.677 9.87343 46.4286 10.1986C45.9336 10.8311 45.7521 11.6453 45.7521 12.9778C45.7521 14.3103 45.9336 15.1479 46.4286 15.7775C46.6764 16.1035 46.9981 16.366 47.3673 16.5432C47.7364 16.7204 48.1424 16.8073 48.5518 16.7967C49.4567 16.7967 50.0161 16.5038 50.7424 15.7102L52.3238 17.2242C51.859 17.7634 51.2782 18.1904 50.625 18.4734C49.9718 18.7564 49.2631 18.888 48.5518 18.8584Z" fill="white"/>
<path d="M60.539 18.7242V17.6845C59.7015 18.5221 58.9107 18.8559 57.4904 18.8559C56.07 18.8559 55.1182 18.5192 54.4183 17.8192C53.81 17.1459 53.4857 16.2633 53.5134 15.3563C53.5134 13.4351 54.8459 12.0587 57.4669 12.0587H60.4922V11.2475C60.4922 9.80369 59.7718 9.10375 57.9853 9.10375C56.7202 9.10375 56.111 9.39661 55.4784 10.2078L53.9644 8.78454C55.0509 7.51939 56.1784 7.13574 58.0644 7.13574C61.2038 7.13574 62.7853 8.46825 62.7853 11.063V18.7242H60.539ZM60.4922 13.6636H57.8037C56.4507 13.6636 55.7537 14.2756 55.7537 15.3153C55.7537 16.3549 56.4068 16.9407 57.8535 16.9407C58.7321 16.9407 59.3881 16.8733 60.0002 16.2846C60.337 15.9479 60.4951 15.4061 60.4951 14.5919L60.4922 13.6636Z" fill="white"/>
<path d="M78.5934 18.7242V11.7453C78.5934 9.96184 77.5772 9.19162 76.2886 9.19162C75.0469 9.19162 73.9164 9.98234 73.9164 11.6311V18.7242H71.6116V11.7453C71.6116 9.96184 70.5954 9.19162 69.3098 9.19162C68.0241 9.19162 66.9376 9.98234 66.9376 11.7453V18.7242H64.6328V7.2734H66.8908V8.42433C67.284 8.01219 67.7579 7.68536 68.2829 7.46419C68.8078 7.24301 69.3727 7.13221 69.9423 7.13868C71.3627 7.13868 72.4726 7.70097 73.1931 8.80798C73.6177 8.26575 74.1646 7.83179 74.7892 7.54164C75.4138 7.25149 76.0982 7.1134 76.7865 7.13868C77.847 7.10223 78.8813 7.4732 79.677 8.1754C80.5556 9.03348 80.8982 10.12 80.8982 11.3968V18.7183L78.5934 18.7242Z" fill="white"/>
<path d="M96.6901 18.7242V11.7454C96.6901 9.96189 95.6739 9.19167 94.3853 9.19167C93.1436 9.19167 92.016 9.98239 92.016 11.6312V18.7242H89.7112V11.7454C89.7112 9.96189 88.695 9.19167 87.4064 9.19167C86.1179 9.19167 85.0343 9.98239 85.0343 11.7454V18.7242H82.7324V7.27345H84.9904V8.42439C85.3831 8.01232 85.8564 7.68552 86.3809 7.46434C86.9054 7.24315 87.4698 7.13232 88.039 7.13874C89.4623 7.13874 90.5693 7.70102 91.2927 8.80803C91.7165 8.26567 92.2629 7.83158 92.8871 7.5414C93.5112 7.25121 94.1953 7.11321 94.8831 7.13874C95.9438 7.10199 96.9782 7.47299 97.7737 8.17546C98.6522 9.03353 98.9949 10.12 98.9949 11.3969V18.7184L96.6901 18.7242Z" fill="white"/>
</g>
<defs>
<clipPath id="clip0_1088_4661">
<rect width="98.998" height="26" fill="white"/>
</clipPath>
</defs>
</svg>
