<svg width="75" height="17" viewBox="0 0 75 17" fill="none" xmlns="http://www.w3.org/2000/svg">
<g clip-path="url(#clip0_1088_4670)">
<path d="M15.4868 16.5373H2.34267C1.47382 16.5373 0.649531 16.0811 0.248523 15.3021C-0.208179 14.4118 -0.0410924 13.3434 0.660666 12.6422L9.80587 3.50556H3.25608C1.45154 3.50556 -0.00767517 2.0477 -0.00767517 0.244833H12.1005C12.9693 0.244833 13.7936 0.701113 14.1946 1.48012C14.6514 2.37043 14.4843 3.43879 13.7825 4.13991L4.63732 13.2766H12.223C14.0276 13.2766 15.4868 14.7345 15.4868 16.5373ZM67.5065 0C65.6241 0 63.9306 0.812397 62.772 2.11447C61.6028 0.812397 59.9094 0 58.0382 0C54.5403 0 51.6889 2.98251 51.6889 6.4658V16.5373C53.4933 16.5373 54.9525 15.0795 54.9525 13.2766V6.43243C54.9525 4.75198 56.2558 3.3275 57.9266 3.26073C59.6867 3.19395 61.1459 4.60729 61.1459 6.35453V13.2766C61.1459 15.0795 62.6051 16.5373 64.4096 16.5373V6.43243C64.4096 4.75198 65.713 3.3275 67.3835 3.26073C69.1437 3.19395 70.6031 4.60729 70.6031 6.35453V13.2766C70.6031 15.0795 72.0624 16.5373 73.8664 16.5373V6.4658C73.8552 2.98251 71.0039 0 67.5065 0ZM31.9504 8.39107C31.9504 13.0207 28.1854 16.7822 23.5515 16.7822C18.9176 16.7822 15.1526 13.0207 15.1526 8.39107C15.1526 3.76151 18.9288 0 23.5515 0C28.1742 0 31.9504 3.76151 31.9504 8.39107ZM28.6866 8.39107C28.6866 5.56439 26.3808 3.26073 23.5515 3.26073C20.7222 3.26073 18.4163 5.56439 18.4163 8.39107C18.4163 11.2178 20.7222 13.5215 23.5515 13.5215C26.3808 13.5215 28.6866 11.2178 28.6866 8.39107ZM50.0513 8.39107C50.0513 13.0207 46.2865 16.7822 41.6527 16.7822C37.0185 16.7822 33.2536 13.0207 33.2536 8.39107C33.2536 3.76151 37.03 0 41.6527 0C46.2751 0 50.0513 3.76151 50.0513 8.39107ZM46.7877 8.39107C46.7877 5.56439 44.482 3.26073 41.6527 3.26073C38.8233 3.26073 36.5174 5.56439 36.5174 8.39107C36.5174 11.2178 38.8233 13.5215 41.6527 13.5215C44.482 13.5215 46.7877 11.2178 46.7877 8.39107Z" fill="white"/>
</g>
<defs>
<clipPath id="clip0_1088_4670">
<rect width="74.5377" height="17" fill="white"/>
</clipPath>
</defs>
</svg>
