<svg width="78" height="26" viewBox="0 0 78 26" fill="none" xmlns="http://www.w3.org/2000/svg">
<g id="Frame" clip-path="url(#clip0_1088_4715)">
<path id="Vector" fill-rule="evenodd" clip-rule="evenodd" d="M28.3606 9.90312C30.2922 9.90312 31.2084 9.57452 31.2084 8.90574V5.58448C31.2084 4.91598 30.2922 4.58738 28.3606 4.58738H24.2118C22.2805 4.58738 21.3646 4.91598 21.3646 5.58448V8.90574C21.3646 9.57452 22.2805 9.90312 24.2118 9.90312H28.3606ZM28.3606 11.4757H24.2118C20.7576 11.4757 19.0312 10.5909 19.0312 8.78149V5.70929C19.0312 3.89955 20.7576 3.01318 24.2118 3.01318H28.3606C31.8149 3.01318 33.5418 3.89955 33.5418 5.70929V8.78149C33.5418 10.5909 31.8149 11.4757 28.3606 11.4757Z" fill="white"/>
<path id="Vector_2" fill-rule="evenodd" clip-rule="evenodd" d="M72.7979 9.90306H68.6494C66.7184 9.90306 65.8021 9.57446 65.8021 8.90568V5.58442C65.8021 4.91619 66.7184 4.5876 68.6494 4.5876H72.7979C74.7295 4.5876 75.6457 4.91619 75.6457 5.58442V8.90568C75.6457 9.57446 74.7295 9.90306 72.7979 9.90306ZM72.7979 11.4756C76.2522 11.4756 77.979 10.5909 77.979 8.7817V5.70923C77.979 3.89976 76.2522 3.01367 72.7979 3.01367H68.6494C65.1954 3.01367 63.4688 3.89976 63.4688 5.70923V8.7817C63.4688 10.5909 65.1954 11.4756 68.6494 11.4756H72.7979Z" fill="white"/>
<path id="Vector_3" fill-rule="evenodd" clip-rule="evenodd" d="M16.6438 8.74103V6.6165C16.6438 6.15619 16.3578 5.94662 15.7813 5.94662H10.7236C10.2668 5.94662 9.89374 6.3343 9.89374 6.80702C9.89374 7.28113 10.2668 7.66827 10.7236 7.66827H14.1832V8.81061C14.1832 9.15328 13.7339 9.48463 12.9804 9.68593C12.382 9.84553 11.8828 9.861 11.3529 9.861H5.789C3.57156 9.861 2.46062 9.49734 2.46062 8.76754V3.37172C2.46062 2.64413 3.78662 2.30642 6.43389 2.30642H7.99834C8.59643 2.30642 8.89673 2.03913 8.89673 1.50648C8.89673 0.976596 8.59643 0.712341 7.99834 0.712341H5.77841C4.43875 0.712341 3.20552 0.858137 2.10572 1.23284C0.854379 1.65891 0 2.40831 0 3.37614V8.7783C0 9.78395 0.689743 10.5149 2.06393 10.9716C3.06373 11.3065 4.29362 11.4744 5.75919 11.4744H11.349C12.7131 11.4744 13.8682 11.2883 14.8158 10.9169C16.0354 10.4422 16.6438 9.71714 16.6438 8.74103Z" fill="white"/>
<path id="Vector_4" fill-rule="evenodd" clip-rule="evenodd" d="M50.3681 4.90727C50.3681 5.77541 49.275 6.02697 47.1347 6.02697H38.4367V2.30697H47.1347C49.275 2.30697 50.3681 2.5588 50.3681 3.42667V4.90727ZM50.6874 1.16546C49.7096 0.875805 48.5245 0.712891 47.1347 0.712891H36.6786C36.2911 0.712891 35.9766 1.02409 35.9766 1.40846V10.7697C35.9766 11.2408 36.2721 11.4749 36.8407 11.4749H37.5723C38.1411 11.4749 38.4367 11.2408 38.4367 10.7697V7.62132H47.1347C48.6151 7.62132 49.7533 7.46034 50.8011 7.11712C52.1458 6.62754 52.8287 5.84914 52.8287 4.78274V3.10084C52.8287 2.24954 52.1229 1.59898 50.6874 1.16546Z" fill="white"/>
<path id="Vector_5" fill-rule="evenodd" clip-rule="evenodd" d="M60.9745 3.01292C58.8289 3.01292 57.9207 2.97427 56.6499 3.4909C55.4546 3.97716 54.9453 4.83178 54.9453 5.61819V10.8033C54.9453 11.2517 55.227 11.4748 55.7688 11.4748H56.4652C57.0068 11.4748 57.2881 11.2517 57.2881 10.8033V5.61819C57.2881 4.89391 58.1937 4.58686 59.9883 4.58686H60.9912C61.577 4.58686 61.855 4.3215 61.855 3.79961C61.855 3.28022 61.5606 3.01292 60.9745 3.01292Z" fill="white"/>
<g id="Mask group">
<mask id="mask0_1088_4715" style="mask-type:alpha" maskUnits="userSpaceOnUse" x="0" y="0" width="78" height="26">
<g id="Group">
<path id="Vector_6" d="M0 25.1052H77.9802V0.712341H0V25.1052Z" fill="white"/>
</g>
</mask>
<g mask="url(#mask0_1088_4715)">
<g id="Group_2">
<path id="Vector_7" fill-rule="evenodd" clip-rule="evenodd" d="M0 25.1055H16.9201V14.1257H0V25.1055Z" fill="white"/>
<path id="Vector_8" fill-rule="evenodd" clip-rule="evenodd" d="M20.3477 25.1045H37.2678V14.1248H20.3477V25.1045Z" fill="white"/>
<path id="Vector_9" fill-rule="evenodd" clip-rule="evenodd" d="M40.7031 25.1045H57.6232V14.1248H40.7031V25.1045Z" fill="white"/>
<path id="Vector_10" fill-rule="evenodd" clip-rule="evenodd" d="M61.0625 25.1045H77.9824V14.1248H61.0625V25.1045Z" fill="white"/>
</g>
</g>
</g>
</g>
<defs>
<clipPath id="clip0_1088_4715">
<rect width="78" height="26" fill="white"/>
</clipPath>
</defs>
</svg>
