<svg width="89" height="36" viewBox="0 0 89 36" fill="none" xmlns="http://www.w3.org/2000/svg">
<rect width="89" height="36" fill="#F5F5F5"/>
<g id="1440px" clip-path="url(#clip0_1088_4006)">
<rect width="1440" height="7682" transform="translate(-468 -2816)" fill="#01010C"/>
<g id="Content">
<g id="It just works section">
<g id="Group 44">
<g id="Frame" clip-path="url(#clip1_1088_4006)">
<g id="Layer 2">
<g id="Layer 1">
<path id="Vector" d="M74.9856 12.5544H77.535V25.1167H74.9856V12.5544ZM68.7639 15.28C67.9332 15.2781 67.1159 15.4901 66.3908 15.8957V15.3533H63.8414V28.8567H66.3908V24.558C67.1157 24.9644 67.9329 25.1773 68.7639 25.1764C70.0563 25.1461 71.2855 24.6115 72.1888 23.6868C73.092 22.7622 73.5978 21.5208 73.5978 20.2282C73.5978 18.9356 73.092 17.6942 72.1888 16.7696C71.2855 15.8449 70.0563 15.3103 68.7639 15.28ZM68.7639 22.6379C68.1749 22.6354 67.6074 22.4161 67.1697 22.0219C66.732 21.6278 66.4548 21.0863 66.3908 20.5008V19.9584C66.4477 19.502 66.6351 19.0718 66.9305 18.7193C67.2258 18.3669 67.6166 18.1071 68.056 17.9713C68.4953 17.8354 68.9646 17.8292 69.4073 17.9535C69.8501 18.0777 70.2476 18.3271 70.5522 18.6716C70.8567 19.0162 71.0554 19.4413 71.1243 19.896C71.1932 20.3507 71.1294 20.8156 70.9406 21.2349C70.7518 21.6542 70.446 22.0102 70.0599 22.26C69.6738 22.5098 69.2238 22.6429 68.7639 22.6433V22.6379ZM50.7986 23.2101V23.2155L50.8041 23.2074L50.7986 23.2101ZM57.4841 16.7934C55.9192 16.4245 54.7719 16.137 54.7719 15.2149C54.7719 14.4013 55.4635 13.8237 56.7627 13.8237C58.0323 13.879 59.265 14.2672 60.3373 14.9492L62.2358 13.1836C60.896 11.9361 59.1087 11.2852 56.9552 11.2852C53.7657 11.2852 51.8157 13.1294 51.8157 15.4021C51.8157 18.4559 54.6607 19.0715 56.8739 19.5841C58.4388 19.9529 59.6186 20.3001 59.6186 21.3252C59.6186 22.1036 58.8456 22.8603 57.2617 22.8603C56.5451 22.868 55.8327 22.7495 55.1571 22.5104C54.8172 22.3861 54.4931 22.2223 54.1915 22.0222C53.9065 21.8211 53.6348 21.6019 53.3779 21.3659L51.379 23.221C52.1069 23.9545 52.9876 24.5184 53.9583 24.8726C54.9758 25.2338 56.0492 25.412 57.1288 25.3988C60.7875 25.3988 62.5531 23.5003 62.5531 21.0133C62.5585 17.9813 59.7135 17.3059 57.4841 16.7934ZM88.6738 22.6108L88.4813 22.7653C88.4623 22.7816 88.4243 22.806 88.4053 22.8196C88.1614 22.9715 87.8791 23.0505 87.5917 23.0474C87.0276 23.0474 86.7075 22.5809 86.7075 21.9626V17.5609H88.6738V15.3126H86.7211V12.5137H84.15V22.6623C84.15 24.4034 85.1155 25.3337 86.9028 25.3337C87.5158 25.3555 88.1245 25.2241 88.6738 24.9513V22.6108ZM79.6858 17.4985H82.2352V25.1194H79.6858V17.4985Z" fill="white"/>
<path id="Vector_2" d="M80.953 15.6734C81.6316 15.6734 82.1816 15.1234 82.1816 14.4449C82.1816 13.7664 81.6316 13.2163 80.953 13.2163C80.2745 13.2163 79.7244 13.7664 79.7244 14.4449C79.7244 15.1234 80.2745 15.6734 80.953 15.6734Z" fill="white"/>
<path id="Vector_3" d="M51.1011 11.2852H47.559L37.2908 25.3825H40.8519L51.1011 11.2852Z" fill="white"/>
<path id="Vector_4" d="M47.5401 25.3825H51.1011L40.8329 11.2852H37.2908L47.5401 25.3825Z" fill="white"/>
<path id="Vector_5" d="M33.0875 36.0006V24.7102L26.6191 20.04L18.7186 25.7028L33.0875 36.0006Z" fill="white"/>
<path id="Vector_6" d="M18.7186 25.7028L33.0875 15.4051V4.0415L18.7186 14.4125V25.7028Z" fill="white"/>
<path id="Vector_7" d="M0.255859 0V11.2903L6.72434 15.9578L14.6248 10.2977L0.255859 0Z" fill="white"/>
<path id="Vector_8" d="M14.6245 10.2977L0.255524 20.5927V31.959L14.6245 21.5881V10.2977Z" fill="white"/>
</g>
</g>
</g>
</g>
</g>
</g>
</g>
<defs>
<clipPath id="clip0_1088_4006">
<rect width="1440" height="7682" fill="white" transform="translate(-468 -2816)"/>
</clipPath>
<clipPath id="clip1_1088_4006">
<rect width="88.4297" height="36" fill="white" transform="translate(0.261719)"/>
</clipPath>
</defs>
</svg>
