<svg width="40" height="40" viewBox="0 0 40 40" fill="none" xmlns="http://www.w3.org/2000/svg">
<g id="Layer_1" clip-path="url(#clip0_1088_4632)">
<path id="Vector" d="M20 0C31.0457 0 40 8.95426 40 20C40 31.0457 31.0457 40 20 40C8.95426 40 0 31.0457 0 20C0 8.95426 8.95426 0 20 0Z" fill="url(#paint0_radial_1088_4632)"/>
<path id="Vector_2" d="M19.9005 0.235352C30.7187 0.235352 39.4886 9.00517 39.4886 19.8234C39.4886 30.6416 30.7187 39.4114 19.9005 39.4114C9.08231 39.4114 0.3125 30.6416 0.3125 19.8234C0.3125 9.00517 9.08231 0.235352 19.9005 0.235352Z" fill="url(#paint1_radial_1088_4632)"/>
<path id="SVGID" d="M2.00781 19.8237C2.00781 29.7043 10.0175 37.7137 19.8979 37.7137C29.7783 37.7137 37.7882 29.7043 37.7882 19.8237C37.7882 9.94325 29.7783 1.93359 19.8979 1.93359C10.0175 1.93359 2.00781 9.94325 2.00781 19.8237Z" fill="url(#paint2_radial_1088_4632)"/>
<g id="Clip path group">
<mask id="mask0_1088_4632" style="mask-type:luminance" maskUnits="userSpaceOnUse" x="2" y="1" width="36" height="37">
<g id="clip-path">
<path id="SVGID_2" d="M2.01953 19.8237C2.01953 29.7043 10.0292 37.7137 19.9096 37.7137C29.79 37.7137 37.7999 29.7043 37.7999 19.8237C37.7999 9.94325 29.79 1.93359 19.9096 1.93359C10.0292 1.93359 2.01953 9.94325 2.01953 19.8237Z" fill="white"/>
</g>
</mask>
<g mask="url(#mask0_1088_4632)">
<g id="Group">
<path id="Vector_3" d="M37.7999 1.93359H2.01953V37.7137H37.7999V1.93359Z" fill="url(#paint3_radial_1088_4632)"/>
</g>
</g>
</g>
<g id="Clip path group_2">
<mask id="mask1_1088_4632" style="mask-type:luminance" maskUnits="userSpaceOnUse" x="2" y="2" width="36" height="36">
<g id="clip-path-2">
<path id="Vector_4" d="M2.17383 19.8254C2.17383 29.6245 10.1174 37.5679 19.9163 37.5679C29.7151 37.5679 37.6589 29.6245 37.6589 19.8254C37.6589 10.0266 29.7151 2.08301 19.9163 2.08301C10.1174 2.08301 2.17383 10.0266 2.17383 19.8254Z" fill="white"/>
</g>
</mask>
<g mask="url(#mask1_1088_4632)">
<g id="Group_2">
<path id="Vector_5" d="M37.6589 2.08301H2.17383V37.5679H37.6589V2.08301Z" fill="url(#paint4_radial_1088_4632)"/>
</g>
</g>
</g>
<path id="Vector_6" d="M26.8712 14.1191C26.3361 15.0511 25.6192 15.8661 24.7632 16.5158C23.9072 17.1655 22.9294 17.6366 21.8878 17.9013C20.8463 18.166 19.7622 18.2189 18.6998 18.0567C17.6375 17.8945 16.6185 17.5206 15.7034 16.9572C15.0297 16.5404 14.4203 16.0279 13.8942 15.4356C12.5095 13.8746 11.7884 11.835 11.8842 9.7505C11.8956 9.51729 11.9151 9.28474 11.9457 9.05323C11.9758 8.82508 12.016 8.59794 12.0656 8.37353C12.1166 8.14316 12.1776 7.9154 12.2488 7.69026C12.3179 7.47113 12.3966 7.25531 12.485 7.04279C12.5766 6.82184 12.6788 6.60557 12.789 6.39336C12.905 6.1699 13.0336 5.95249 13.1709 5.74143C13.2975 5.54677 13.4324 5.35795 13.5755 5.17497C13.7308 4.97554 13.8957 4.78314 14.0698 4.59989C14.2455 4.41492 14.429 4.23819 14.6204 4.0697C14.8153 3.89799 15.0197 3.73738 15.2303 3.58543C15.3388 3.5071 15.4494 3.43175 15.562 3.35938C13.274 4.52843 11.5337 6.54566 10.7127 8.98033C9.89175 11.415 10.0551 14.0742 11.168 16.39C11.19 16.4358 11.2124 16.4814 11.2352 16.5268C11.2455 16.5474 11.2559 16.568 11.2664 16.5886C11.2713 16.6016 11.2776 16.6139 11.2853 16.6255C11.2984 16.64 11.3016 16.6375 11.3216 16.6372C11.4254 16.6353 11.5293 16.6358 11.6332 16.638C11.825 16.6422 12.0166 16.6531 12.2078 16.6708C13.9764 16.838 15.6398 17.5862 16.9382 18.7987C18.2366 20.0111 19.0968 21.6194 19.3846 23.3724C19.5145 24.1744 19.5232 24.9914 19.4104 25.796C19.196 27.3135 18.5507 28.7375 17.5509 29.899C16.9777 30.5645 16.3006 31.1329 15.5458 31.5821C14.0391 32.4719 12.2835 32.8466 10.5448 32.6494C10.2304 32.6134 9.91831 32.5592 9.61016 32.487C9.41059 32.4402 9.21298 32.3851 9.01758 32.323C9.89544 32.7121 10.8258 32.9696 11.7788 33.0873C12.6679 33.197 13.5677 33.1862 14.4539 33.0551C16.0388 32.819 17.5417 32.1982 18.8313 31.247C19.7777 30.5495 20.5925 29.6892 21.2375 28.7062C21.2654 28.6636 21.2931 28.6208 21.3204 28.5777C21.331 28.561 21.3546 28.5347 21.3516 28.517C21.3409 28.4891 21.3267 28.4628 21.3092 28.4386C21.2555 28.3377 21.2038 28.2357 21.1544 28.1325C21.0551 27.9253 20.9648 27.7141 20.8836 27.4988C20.7192 27.0627 20.5933 26.6129 20.5074 26.1547C20.3234 25.1698 20.324 24.1594 20.509 23.1747C20.6665 22.3382 20.957 21.5323 21.3693 20.7877C22.0573 19.5382 23.0661 18.4948 24.2917 17.765C25.5173 17.0353 26.9154 16.6457 28.3417 16.6363C28.5388 16.635 28.7357 16.6407 28.9324 16.6534C29.1222 16.666 29.3113 16.6851 29.4999 16.7105C29.6866 16.7361 29.8723 16.7682 30.0569 16.807C30.2376 16.8451 30.417 16.8893 30.5949 16.9395C30.7691 16.9889 30.9416 17.0442 31.1122 17.1054C31.2852 17.1675 31.4558 17.2355 31.6241 17.3094C31.7957 17.3843 31.9644 17.4655 32.1301 17.5529C32.2957 17.64 32.4582 17.7327 32.6175 17.8311C32.7671 17.9237 32.9142 18.0207 33.0571 18.1232C33.2046 18.229 33.3486 18.3392 33.4892 18.4539C33.6343 18.5719 33.7744 18.6963 33.9106 18.8245C34.0557 18.9611 34.1954 19.1029 34.3299 19.25C34.4641 19.3963 34.5926 19.5477 34.7154 19.704C34.8523 19.878 34.9828 20.0574 35.1045 20.2423C35.2296 20.4323 35.3478 20.6272 35.4569 20.827C35.6089 21.1057 35.7443 21.3931 35.8625 21.6877C35.9897 22.008 36.097 22.3359 36.1836 22.6694C35.9493 20.8854 35.2291 19.2002 34.102 17.7977C33.2733 16.765 32.2458 15.9091 31.0803 15.2808C29.8851 14.6366 28.5688 14.2483 27.2154 14.1406C27.1008 14.1315 26.986 14.1243 26.8712 14.1191Z" fill="url(#paint5_radial_1088_4632)"/>
</g>
<defs>
<radialGradient id="paint0_radial_1088_4632" cx="0" cy="0" r="1" gradientUnits="userSpaceOnUse" gradientTransform="translate(20 20) scale(20)">
<stop offset="0.91341"/>
<stop offset="1" stop-opacity="0"/>
</radialGradient>
<radialGradient id="paint1_radial_1088_4632" cx="0" cy="0" r="1" gradientUnits="userSpaceOnUse" gradientTransform="translate(19.9005 19.8234) scale(19.588)">
<stop offset="0.99" stop-color="white"/>
<stop offset="0.99505" stop-color="#FDFDFD"/>
<stop offset="0.99687" stop-color="#F6F6F6"/>
<stop offset="0.99817" stop-color="#EBEBEB"/>
<stop offset="0.99921" stop-color="#DADADA"/>
<stop offset="1" stop-color="#C7C7C7"/>
</radialGradient>
<radialGradient id="paint2_radial_1088_4632" cx="0" cy="0" r="1" gradientUnits="userSpaceOnUse" gradientTransform="translate(19.898 19.8237) scale(17.8901 17.8901)">
<stop offset="0.99" stop-opacity="0.5"/>
<stop offset="1" stop-opacity="0"/>
</radialGradient>
<radialGradient id="paint3_radial_1088_4632" cx="0" cy="0" r="1" gradientUnits="userSpaceOnUse" gradientTransform="translate(19.9097 19.8237) scale(17.8901 17.8901)">
<stop offset="0.99" stop-opacity="0.5"/>
<stop offset="1" stop-opacity="0"/>
</radialGradient>
<radialGradient id="paint4_radial_1088_4632" cx="0" cy="0" r="1" gradientUnits="userSpaceOnUse" gradientTransform="translate(19.9163 19.8255) scale(17.7425 17.7425)">
<stop/>
<stop offset="1" stop-color="#322F32"/>
</radialGradient>
<radialGradient id="paint5_radial_1088_4632" cx="0" cy="0" r="1" gradientUnits="userSpaceOnUse" gradientTransform="translate(22.6006 18.2607) scale(14.2575 15.6413)">
<stop stop-color="#C2C0C2"/>
<stop offset="1" stop-color="#EBEBEB"/>
</radialGradient>
<clipPath id="clip0_1088_4632">
<rect width="40" height="40" fill="white"/>
</clipPath>
</defs>
</svg>
