<svg width="165" height="124" viewBox="0 0 165 124" fill="none" xmlns="http://www.w3.org/2000/svg">
<g filter="url(#filter0_d_1088_4744)">
<path d="M46 57.3832H49.2303V53.3075H49.9904L52.2865 57.3832H55.7068L52.9991 52.6707C54.1867 52.209 55.0418 51.3015 55.0418 49.6776V49.614C55.0418 47.21 53.3949 46 50.4338 46H46V57.3832ZM49.2303 51.1901V48.4518H50.2913C51.3364 48.4518 51.9064 48.8179 51.9064 49.7413V49.805C51.9064 50.7284 51.3681 51.1901 50.2755 51.1901H49.2303Z" fill="white"/>
<path d="M60.4405 57.5739C62.9424 57.5739 64.3834 56.5072 64.6368 54.6286H61.9765C61.8657 55.1858 61.4697 55.6156 60.5355 55.6156C59.522 55.6156 58.8887 54.9788 58.8095 53.8803H64.6368V53.132C64.6368 50.139 62.689 48.8335 60.4246 48.8335C57.9227 48.8335 55.9434 50.5211 55.9434 53.1957V53.3231C55.9434 56.0455 57.8436 57.5739 60.4405 57.5739ZM58.8411 52.2723C58.9837 51.2693 59.5695 50.7121 60.4246 50.7121C61.3431 50.7121 61.8339 51.2693 61.8815 52.2723H58.8411Z" fill="white"/>
<path d="M69.1715 57.5739C71.4676 57.5739 72.9244 56.6823 72.9244 54.7082C72.9244 52.9251 71.8159 52.3201 69.5199 52.0335C68.5064 51.9062 68.1264 51.747 68.1264 51.3489C68.1264 50.9669 68.4431 50.6962 69.0607 50.6962C69.7099 50.6962 70.0108 50.9669 70.1216 51.5241H72.6869C72.4968 49.534 71.0717 48.8335 69.029 48.8335C67.1129 48.8335 65.482 49.725 65.482 51.5718C65.482 53.3072 66.4162 53.9599 68.6331 54.2465C69.7733 54.4057 70.1691 54.5967 70.1691 54.9947C70.1691 55.4087 69.8524 55.6793 69.1557 55.6793C68.3481 55.6793 68.0789 55.345 67.9839 54.74H65.3711C65.4345 56.5868 66.8121 57.5739 69.1715 57.5739Z" fill="white"/>
<path d="M77.3683 57.5741C78.0333 57.5741 78.5717 57.4308 78.9359 57.3353V55.1701C78.6826 55.2657 78.4451 55.3134 78.1283 55.3134C77.59 55.3134 77.2891 55.0427 77.2891 54.4378V50.9989H78.9201V49.0566H77.2891V47.3213H74.4546V49.0566H73.457V50.9989H74.4546V54.7084C74.4546 56.6666 75.4997 57.5741 77.3683 57.5741Z" fill="white"/>
<path d="M80.2305 57.3826H83.0649V53.4342C83.0649 52.0969 84.0151 51.5556 85.7411 51.6034V48.9447C84.4584 48.9288 83.5875 49.4701 83.0649 50.7119V49.0561H80.2305V57.3826Z" fill="white"/>
<path d="M90.9835 57.5739C93.4854 57.5739 94.9264 56.5072 95.1798 54.6286H92.5195C92.4086 55.1858 92.0128 55.6156 91.0785 55.6156C90.0651 55.6156 89.4316 54.9788 89.3525 53.8803H95.1798V53.132C95.1798 50.139 93.2321 48.8335 90.9677 48.8335C88.4657 48.8335 86.4863 50.5211 86.4863 53.1957V53.3231C86.4863 56.0455 88.3865 57.5739 90.9835 57.5739ZM89.3842 52.2723C89.5267 51.2693 90.1126 50.7121 90.9677 50.7121C91.8861 50.7121 92.377 51.2693 92.4245 52.2723H89.3842Z" fill="white"/>
<path d="M98.795 57.5742C100.125 57.5742 100.854 57.017 101.249 56.412V57.3832H104.005V51.9861C104.005 49.7732 102.548 48.8339 100.268 48.8339C98.0032 48.8339 96.4356 49.8209 96.3089 51.8269H98.9691C99.0325 51.3015 99.3175 50.8399 100.093 50.8399C100.996 50.8399 101.186 51.3652 101.186 52.1613V52.3523H100.394C97.639 52.3523 95.9922 53.1165 95.9922 55.0747C95.9922 56.8419 97.3065 57.5742 98.795 57.5742ZM99.7767 55.6478C99.1117 55.6478 98.795 55.3454 98.795 54.8677C98.795 54.1832 99.3017 53.9603 100.442 53.9603H101.186V54.4697C101.186 55.1861 100.584 55.6478 99.7767 55.6478Z" fill="white"/>
<path d="M105.621 57.3828H108.456V52.5589C108.456 51.6514 108.962 51.1579 109.722 51.1579C110.372 51.1579 110.784 51.5718 110.784 52.4156V57.3828H113.586V52.5589C113.586 51.6514 114.093 51.1579 114.853 51.1579C115.503 51.1579 115.914 51.5718 115.914 52.4156V57.3828H118.748V51.938C118.748 49.8524 117.608 48.8335 116.041 48.8335C114.996 48.8335 114.014 49.2474 113.301 50.2186C112.905 49.3111 112.145 48.8335 111.053 48.8335C109.77 48.8335 108.899 49.534 108.456 50.33V49.0564H105.621V57.3828Z" fill="white"/>
<mask id="mask0_1088_4744" style="mask-type:alpha" maskUnits="userSpaceOnUse" x="40" y="53" width="85" height="6">
<path d="M124.43 53.2002H40.3125V58.9145H124.43V53.2002Z" fill="#FAC515"/>
</mask>
<g mask="url(#mask0_1088_4744)">
<path d="M46 57.3832H49.2303V53.3075H49.9904L52.2865 57.3832H55.7068L52.9991 52.6707C54.1867 52.209 55.0418 51.3015 55.0418 49.6776V49.614C55.0418 47.21 53.3949 46 50.4338 46H46V57.3832ZM49.2303 51.1901V48.4518H50.2913C51.3364 48.4518 51.9064 48.8179 51.9064 49.7413V49.805C51.9064 50.7284 51.3681 51.1901 50.2755 51.1901H49.2303Z" fill="white"/>
<path d="M60.4425 57.5744C62.9444 57.5744 64.3853 56.5077 64.6387 54.629H61.9784C61.8676 55.1862 61.4717 55.6161 60.5374 55.6161C59.524 55.6161 58.8906 54.9793 58.8114 53.8808H64.6387V53.1325C64.6387 50.1395 62.691 48.834 60.4266 48.834C57.9247 48.834 55.9453 50.5216 55.9453 53.1962V53.3236C55.9453 56.046 57.8455 57.5744 60.4425 57.5744ZM58.8431 52.2728C58.9856 51.2698 59.5715 50.7126 60.4266 50.7126C61.345 50.7126 61.8359 51.2698 61.8834 52.2728H58.8431Z" fill="white"/>
<path d="M69.1735 57.5744C71.4696 57.5744 72.9264 56.6828 72.9264 54.7086C72.9264 52.9256 71.8179 52.3206 69.5218 52.034C68.5084 51.9066 68.1283 51.7474 68.1283 51.3494C68.1283 50.9673 68.4451 50.6967 69.0626 50.6967C69.7118 50.6967 70.0127 50.9673 70.1236 51.5246H72.6889C72.4988 49.5345 71.0737 48.834 69.031 48.834C67.1149 48.834 65.4839 49.7255 65.4839 51.5723C65.4839 53.3077 66.4182 53.9604 68.6351 54.247C69.7752 54.4062 70.1711 54.5972 70.1711 54.9952C70.1711 55.4092 69.8544 55.6798 69.1576 55.6798C68.3501 55.6798 68.0809 55.3455 67.9859 54.7405H65.373C65.4364 56.5873 66.8141 57.5744 69.1735 57.5744Z" fill="white"/>
<path d="M77.3702 57.5741C78.0353 57.5741 78.5737 57.4308 78.9379 57.3353V55.1701C78.6845 55.2657 78.447 55.3134 78.1303 55.3134C77.5919 55.3134 77.291 55.0427 77.291 54.4378V50.9989H78.9221V49.0566H77.291V47.3213H74.4566V49.0566H73.459V50.9989H74.4566V54.7084C74.4566 56.6666 75.5017 57.5741 77.3702 57.5741Z" fill="white"/>
<path d="M80.2324 57.3831H83.0669V53.4347C83.0669 52.0974 84.017 51.5561 85.743 51.6039V48.9452C84.4604 48.9292 83.5894 49.4705 83.0669 50.7123V49.0566H80.2324V57.3831Z" fill="white"/>
<path d="M90.9835 57.5744C93.4854 57.5744 94.9264 56.5077 95.1798 54.629H92.5195C92.4086 55.1862 92.0128 55.6161 91.0785 55.6161C90.0651 55.6161 89.4316 54.9793 89.3525 53.8808H95.1798V53.1325C95.1798 50.1395 93.2321 48.834 90.9677 48.834C88.4657 48.834 86.4863 50.5216 86.4863 53.1962V53.3236C86.4863 56.046 88.3865 57.5744 90.9835 57.5744ZM89.3842 52.2728C89.5267 51.2698 90.1126 50.7126 90.9677 50.7126C91.8861 50.7126 92.377 51.2698 92.4245 52.2728H89.3842Z" fill="white"/>
<path d="M98.795 57.5742C100.125 57.5742 100.854 57.017 101.249 56.412V57.3832H104.005V51.9861C104.005 49.7732 102.548 48.8339 100.268 48.8339C98.0032 48.8339 96.4356 49.8209 96.3089 51.8269H98.9691C99.0325 51.3015 99.3175 50.8399 100.093 50.8399C100.996 50.8399 101.186 51.3652 101.186 52.1613V52.3523H100.394C97.639 52.3523 95.9922 53.1165 95.9922 55.0747C95.9922 56.8419 97.3065 57.5742 98.795 57.5742ZM99.7767 55.6478C99.1117 55.6478 98.795 55.3454 98.795 54.8677C98.795 54.1832 99.3017 53.9603 100.442 53.9603H101.186V54.4697C101.186 55.1861 100.584 55.6478 99.7767 55.6478Z" fill="white"/>
<path d="M105.621 57.3833H108.456V52.5594C108.456 51.6519 108.962 51.1584 109.722 51.1584C110.372 51.1584 110.784 51.5723 110.784 52.4161V57.3833H113.586V52.5594C113.586 51.6519 114.093 51.1584 114.853 51.1584C115.503 51.1584 115.914 51.5723 115.914 52.4161V57.3833H118.748V51.9385C118.748 49.8529 117.608 48.834 116.041 48.834C114.996 48.834 114.014 49.2479 113.301 50.2191C112.905 49.3116 112.145 48.834 111.053 48.834C109.77 48.834 108.899 49.5345 108.456 50.3305V49.0569H105.621V57.3833Z" fill="white"/>
</g>
<rect width="73" height="15" transform="translate(46 63)" fill="white"/>
<path d="M50.98 72.04H52.48C52.48 72.3467 52.6033 72.5833 52.85 72.75C53.0967 72.9167 53.4267 73 53.84 73C54.2733 73 54.6133 72.92 54.86 72.76C55.1133 72.5933 55.24 72.3667 55.24 72.08C55.24 71.8333 55.13 71.65 54.91 71.53C54.69 71.41 54.3733 71.3133 53.96 71.24L53.49 71.16C53.2167 71.1133 52.9867 71.0667 52.8 71.02C52.6133 70.9733 52.4 70.9 52.16 70.8C51.9267 70.6933 51.74 70.5733 51.6 70.44C51.46 70.3067 51.34 70.1267 51.24 69.9C51.14 69.6667 51.09 69.4033 51.09 69.11C51.09 68.4967 51.34 67.9933 51.84 67.6C52.3467 67.2 53.0233 67 53.87 67C54.7033 67 55.3633 67.1833 55.85 67.55C56.3367 67.91 56.58 68.39 56.58 68.99H55.08C55.08 68.7167 54.9667 68.5033 54.74 68.35C54.52 68.1967 54.23 68.12 53.87 68.12C53.4967 68.12 53.1933 68.1933 52.96 68.34C52.7333 68.4867 52.62 68.69 52.62 68.95C52.62 69.21 52.74 69.4 52.98 69.52C53.2267 69.64 53.5867 69.74 54.06 69.82L54.52 69.9C54.8467 69.9533 55.1267 70.0167 55.36 70.09C55.5933 70.1633 55.83 70.2733 56.07 70.42C56.31 70.56 56.4933 70.7567 56.62 71.01C56.7467 71.2567 56.81 71.5533 56.81 71.9C56.81 72.5733 56.55 73.1133 56.03 73.52C55.51 73.92 54.78 74.12 53.84 74.12C52.9133 74.12 52.2033 73.94 51.71 73.58C51.2233 73.2133 50.98 72.7 50.98 72.04ZM62.2085 68.41V67.12H68.3385V68.41H66.0485V74H64.4985V68.41H62.2085ZM73.9776 71.22V67.12H75.5376V71.2C75.5376 71.72 75.6642 72.12 75.9176 72.4C76.1709 72.6733 76.5476 72.81 77.0476 72.81C77.5476 72.81 77.9242 72.6733 78.1776 72.4C78.4309 72.12 78.5576 71.72 78.5576 71.2V67.12H80.1076V71.22C80.1076 73.1533 79.0876 74.12 77.0476 74.12C75.0009 74.12 73.9776 73.1533 73.9776 71.22ZM86.4485 74V67.12H89.0685C90.2485 67.12 91.1552 67.4367 91.7885 68.07C92.4285 68.7033 92.7485 69.5333 92.7485 70.56C92.7485 71.5867 92.4285 72.4167 91.7885 73.05C91.1552 73.6833 90.2485 74 89.0685 74H86.4485ZM88.9285 68.39H87.9985V72.73H88.9285C89.6885 72.73 90.2485 72.53 90.6085 72.13C90.9685 71.7233 91.1485 71.2 91.1485 70.56C91.1485 69.92 90.9685 69.4 90.6085 69C90.2485 68.5933 89.6885 68.39 88.9285 68.39ZM98.8583 74V67.12H100.408V74H98.8583ZM107.494 73.12C106.841 72.4533 106.514 71.6 106.514 70.56C106.514 69.52 106.841 68.6667 107.494 68C108.148 67.3333 109.014 67 110.094 67C111.161 67 112.024 67.3367 112.684 68.01C113.344 68.6767 113.674 69.5267 113.674 70.56C113.674 71.5933 113.344 72.4467 112.684 73.12C112.024 73.7867 111.161 74.12 110.094 74.12C109.014 74.12 108.148 73.7867 107.494 73.12ZM108.654 68.94C108.288 69.3533 108.104 69.8933 108.104 70.56C108.104 71.2267 108.288 71.77 108.654 72.19C109.021 72.6033 109.501 72.81 110.094 72.81C110.688 72.81 111.168 72.6 111.534 72.18C111.901 71.7533 112.084 71.2133 112.084 70.56C112.084 69.9067 111.901 69.37 111.534 68.95C111.168 68.5233 110.688 68.31 110.094 68.31C109.501 68.31 109.021 68.52 108.654 68.94Z" fill="#01010C"/>
</g>
<defs>
<filter id="filter0_d_1088_4744" x="0" y="0" width="165" height="124" filterUnits="userSpaceOnUse" color-interpolation-filters="sRGB">
<feFlood flood-opacity="0" result="BackgroundImageFix"/>
<feColorMatrix in="SourceAlpha" type="matrix" values="0 0 0 0 0 0 0 0 0 0 0 0 0 0 0 0 0 0 127 0" result="hardAlpha"/>
<feOffset/>
<feGaussianBlur stdDeviation="23"/>
<feComposite in2="hardAlpha" operator="out"/>
<feColorMatrix type="matrix" values="0 0 0 0 0.32549 0 0 0 0 0.513726 0 0 0 0 1 0 0 0 1 0"/>
<feBlend mode="normal" in2="BackgroundImageFix" result="effect1_dropShadow_1088_4744"/>
<feBlend mode="normal" in="SourceGraphic" in2="effect1_dropShadow_1088_4744" result="shape"/>
</filter>
</defs>
</svg>
