<svg width="98" height="24" viewBox="0 0 98 24" fill="none" xmlns="http://www.w3.org/2000/svg">
<g id="Frame 49" clip-path="url(#clip0_1088_5008)">
<path id="Vector" d="M25.8193 8.50537H35.7093V10.3465H31.8153V20.7253H29.6808V10.3465H25.8031L25.8193 8.50537ZM35.2857 11.8781H37.1106V13.5889H37.1432C37.2083 13.3445 37.3224 13.1164 37.4853 12.8883C37.6482 12.6602 37.8438 12.4483 38.0882 12.2691C38.3163 12.0736 38.577 11.927 38.8702 11.8129C39.1472 11.6988 39.4405 11.6337 39.7338 11.6337C39.9619 11.6337 40.1248 11.65 40.2063 11.65C40.2877 11.6663 40.3855 11.6826 40.467 11.6826V13.5563C40.3366 13.5237 40.19 13.5074 40.0434 13.4911C39.8967 13.4748 39.7664 13.4585 39.6197 13.4585C39.2939 13.4585 38.9843 13.5237 38.691 13.654C38.3977 13.7844 38.1533 13.9799 37.9252 14.2243C37.7134 14.485 37.5342 14.7946 37.4038 15.1693C37.2735 15.5441 37.2083 15.984 37.2083 16.4728V20.6764H35.2531L35.2857 11.8781ZM49.4283 20.7253H47.5057V19.487H47.4731C47.2287 19.9432 46.8702 20.2854 46.3977 20.5624C45.9252 20.8394 45.4364 20.9697 44.9476 20.9697C43.7908 20.9697 42.9435 20.6927 42.4222 20.1062C41.9008 19.5359 41.6401 18.6561 41.6401 17.4993V11.8781H43.5953V17.3037C43.5953 18.0858 43.7419 18.6398 44.0515 18.9494C44.3448 19.2752 44.7684 19.4381 45.3061 19.4381C45.7134 19.4381 46.0556 19.373 46.3325 19.2426C46.6095 19.1123 46.8376 18.9494 47.0006 18.7375C47.1798 18.5257 47.2938 18.265 47.3753 17.9718C47.4568 17.6785 47.4894 17.3526 47.4894 17.0105V11.8781H49.4446V20.7253H49.4283ZM52.7521 17.8903C52.8173 18.4606 53.0291 18.8516 53.4038 19.096C53.7786 19.3241 54.2348 19.4381 54.7561 19.4381C54.9354 19.4381 55.1472 19.4219 55.3753 19.3893C55.6034 19.3567 55.8315 19.3078 56.027 19.2263C56.2388 19.1449 56.4018 19.0308 56.5321 18.8679C56.6625 18.705 56.7276 18.5094 56.7113 18.265C56.695 18.0206 56.6136 17.8088 56.4344 17.6459C56.2551 17.483 56.0433 17.3689 55.7826 17.2549C55.5219 17.1571 55.2124 17.0756 54.8702 17.0105C54.528 16.9453 54.1859 16.8638 53.8274 16.7823C53.469 16.7009 53.1105 16.6031 52.7684 16.4891C52.4262 16.375 52.1329 16.2284 51.856 16.0166C51.5953 15.821 51.3672 15.5766 51.2205 15.2671C51.0576 14.9575 50.9761 14.599 50.9761 14.1428C50.9761 13.654 51.0902 13.263 51.3346 12.9371C51.5627 12.6113 51.8722 12.3506 52.2307 12.1551C52.5891 11.9595 52.9965 11.8129 53.4364 11.7314C53.8763 11.65 54.2999 11.6174 54.691 11.6174C55.1472 11.6174 55.5871 11.6663 55.9944 11.764C56.4018 11.8618 56.7928 12.0084 57.1187 12.2365C57.4608 12.4483 57.7378 12.7416 57.9496 13.0838C58.1777 13.4259 58.3081 13.8496 58.3733 14.3384H56.3366C56.2388 13.8659 56.027 13.5563 55.7012 13.3934C55.359 13.2304 54.9843 13.149 54.5443 13.149C54.414 13.149 54.2348 13.1652 54.0555 13.1815C53.86 13.2141 53.6971 13.2467 53.5179 13.3119C53.3549 13.3771 53.2083 13.4748 53.0942 13.5889C52.9802 13.7029 52.915 13.8659 52.915 14.0614C52.915 14.3058 52.9965 14.485 53.1594 14.6316C53.3223 14.7783 53.5342 14.8923 53.8111 15.0064C54.0718 15.1041 54.3814 15.1856 54.7236 15.2508C55.0657 15.316 55.4242 15.3974 55.7826 15.4789C56.1411 15.5604 56.4832 15.6581 56.8254 15.7722C57.1676 15.8862 57.4771 16.0329 57.7378 16.2447C57.9985 16.4402 58.2266 16.6846 58.3895 16.9779C58.5525 17.2711 58.6339 17.6459 58.6339 18.0695C58.6339 18.5909 58.5199 19.0308 58.2755 19.4056C58.0311 19.764 57.7215 20.0736 57.3468 20.3017C56.972 20.5298 56.5321 20.6927 56.0759 20.8068C55.6034 20.9045 55.1472 20.9697 54.691 20.9697C54.137 20.9697 53.6156 20.9045 53.1431 20.7742C52.6706 20.6439 52.247 20.4483 51.9048 20.2039C51.5627 19.9432 51.2857 19.6337 51.0902 19.2426C50.8946 18.8679 50.7806 18.4117 50.7643 17.874H52.7358V17.8903H52.7521ZM59.1879 11.8781H60.6706V9.20598H62.6258V11.8618H64.3855V13.3119H62.6258V18.0369C62.6258 18.2487 62.6421 18.4117 62.6584 18.5746C62.6747 18.7212 62.7235 18.8516 62.7724 18.9494C62.8376 19.0471 62.9354 19.1286 63.0494 19.1775C63.1798 19.2263 63.3427 19.2589 63.5708 19.2589C63.7011 19.2589 63.8478 19.2589 63.9781 19.2426C64.1085 19.2263 64.2551 19.21 64.3855 19.1775V20.6927C64.1736 20.7253 63.9618 20.7416 63.75 20.7579C63.5382 20.7905 63.3427 20.7905 63.1146 20.7905C62.5932 20.7905 62.1859 20.7416 61.8763 20.6439C61.5667 20.5461 61.3223 20.3995 61.1431 20.2202C60.9639 20.0247 60.8498 19.7966 60.7846 19.5196C60.7195 19.2426 60.6869 18.9005 60.6706 18.542V13.3282H59.1879V11.8455V11.8781ZM65.7541 11.8781H67.5952V13.0838H67.6278C67.9048 12.5624 68.2795 12.2039 68.7683 11.9758C69.2571 11.7477 69.7785 11.6337 70.3651 11.6337C71.0657 11.6337 71.6685 11.7477 72.1899 12.0084C72.7113 12.2528 73.1349 12.5787 73.4771 13.0186C73.8193 13.4422 74.0799 13.9473 74.2429 14.5176C74.4058 15.0878 74.5036 15.707 74.5036 16.3424C74.5036 16.9453 74.4221 17.5155 74.2755 18.0695C74.1125 18.6235 73.8844 19.1286 73.5748 19.5522C73.2653 19.9758 72.8742 20.318 72.3854 20.5787C71.8966 20.8394 71.3427 20.9697 70.6909 20.9697C70.414 20.9697 70.1207 20.9371 69.8437 20.8883C69.5667 20.8394 69.2897 20.7579 69.029 20.6439C68.7683 20.5298 68.5239 20.3832 68.3121 20.2039C68.084 20.0247 67.9048 19.8129 67.7582 19.5848H67.7256V24.0003H65.7704V11.8781H65.7541ZM72.581 16.3098C72.581 15.9188 72.5321 15.5278 72.418 15.153C72.3203 14.7783 72.1573 14.4524 71.9455 14.1591C71.7337 13.8659 71.473 13.6377 71.1797 13.4585C70.8702 13.2793 70.5117 13.1978 70.1207 13.1978C69.306 13.1978 68.6869 13.4748 68.2633 14.0451C67.8559 14.6153 67.6441 15.3811 67.6441 16.3261C67.6441 16.7823 67.693 17.1897 67.807 17.5644C67.9211 17.9392 68.0677 18.265 68.2958 18.542C68.5076 18.819 68.7683 19.0308 69.0779 19.1937C69.3875 19.3567 69.7296 19.4381 70.137 19.4381C70.5932 19.4381 70.9516 19.3404 71.2612 19.1612C71.5708 18.9819 71.8152 18.7375 72.027 18.4606C72.2225 18.1673 72.3691 17.8414 72.4506 17.4667C72.5321 17.0756 72.581 16.7009 72.581 16.3098ZM76.0188 8.50537H77.974V10.3465H76.0188V8.50537ZM76.0188 11.8781H77.974V20.7253H76.0188V11.8781ZM79.7174 8.50537H81.6726V20.7253H79.7174V8.50537ZM87.6359 20.9697C86.9353 20.9697 86.2999 20.8557 85.7459 20.6113C85.1919 20.3669 84.7357 20.0573 84.3447 19.65C83.9699 19.2426 83.6767 18.7375 83.4811 18.1673C83.2856 17.597 83.1716 16.9616 83.1716 16.2935C83.1716 15.6255 83.2693 15.0064 83.4811 14.4361C83.6767 13.8659 83.9699 13.3771 84.3447 12.9534C84.7194 12.5461 85.1919 12.2202 85.7459 11.9921C86.2999 11.764 86.9353 11.6337 87.6359 11.6337C88.3365 11.6337 88.972 11.7477 89.5259 11.9921C90.0799 12.2202 90.5361 12.5461 90.9272 12.9534C91.3019 13.3608 91.5952 13.8659 91.7907 14.4361C91.9862 15.0064 92.1003 15.6255 92.1003 16.2935C92.1003 16.9779 92.0025 17.597 91.7907 18.1673C91.5789 18.7375 91.3019 19.2263 90.9272 19.65C90.5524 20.0573 90.0799 20.3832 89.5259 20.6113C88.972 20.8394 88.3528 20.9697 87.6359 20.9697ZM87.6359 19.4219C88.0595 19.4219 88.4506 19.3241 88.7602 19.1449C89.086 18.9656 89.3304 18.7212 89.5422 18.428C89.754 18.1347 89.9007 17.7925 89.9984 17.4341C90.0962 17.0593 90.1451 16.6846 90.1451 16.2935C90.1451 15.9188 90.0962 15.5441 89.9984 15.1693C89.9007 14.7946 89.754 14.4687 89.5422 14.1754C89.3304 13.8821 89.0697 13.654 88.7602 13.4748C88.4343 13.2956 88.0595 13.1978 87.6359 13.1978C87.2123 13.1978 86.8213 13.2956 86.5117 13.4748C86.1858 13.654 85.9414 13.8984 85.7296 14.1754C85.5178 14.4687 85.3712 14.7946 85.2734 15.1693C85.1756 15.5441 85.1268 15.9188 85.1268 16.2935C85.1268 16.6846 85.1756 17.0593 85.2734 17.4341C85.3712 17.8088 85.5178 18.1347 85.7296 18.428C85.9414 18.7212 86.2021 18.9656 86.5117 19.1449C86.8376 19.3404 87.2123 19.4219 87.6359 19.4219ZM92.6868 11.8781H94.1695V9.20598H96.1247V11.8618H97.8844V13.3119H96.1247V18.0369C96.1247 18.2487 96.141 18.4117 96.1573 18.5746C96.1736 18.7212 96.2225 18.8516 96.2713 18.9494C96.3365 19.0471 96.4343 19.1286 96.5483 19.1775C96.6787 19.2263 96.8416 19.2589 97.0697 19.2589C97.2001 19.2589 97.3467 19.2589 97.477 19.2426C97.6074 19.2263 97.754 19.21 97.8844 19.1775V20.6927C97.6726 20.7253 97.4607 20.7416 97.2489 20.7579C97.0371 20.7905 96.8416 20.7905 96.6135 20.7905C96.0921 20.7905 95.6848 20.7416 95.3752 20.6439C95.0656 20.5461 94.8212 20.3995 94.642 20.2202C94.4628 20.0247 94.3487 19.7966 94.2836 19.5196C94.2184 19.2426 94.1858 18.9005 94.1695 18.542V13.3282H92.6868V11.8455V11.8781Z" fill="white"/>
<path id="Vector_2" d="M23.5348 8.50556H14.5898L11.8363 0.000488281L9.06641 8.50556L0.121414 8.48927L7.35562 13.752L4.58576 22.2571L11.82 16.9943L19.0542 22.2571L16.3006 13.752L23.5348 8.50556Z" fill="#00B67A"/>
<path id="Vector_3" d="M16.9237 15.6743L16.3045 13.7517L11.8402 16.9941L16.9237 15.6743Z" fill="#005128"/>
</g>
<defs>
<clipPath id="clip0_1088_5008">
<rect width="97.7611" height="24" fill="white" transform="translate(0.119461)"/>
</clipPath>
</defs>
</svg>
