<svg width="24" height="24" viewBox="0 0 24 24" fill="none" xmlns="http://www.w3.org/2000/svg">
<g id="Platform">
<g id="new">
<path d="M9.10136 23.6473C9.10132 23.6473 9.1014 23.6473 9.10136 23.6473V23.6473Z" fill="white"/>
<path d="M9.10136 23.6473C3.87435 22.3504 0 17.6278 0 12C0 5.37267 5.37267 0 12 0C18.6273 0 24 5.37267 24 12C24 18.1344 19.3964 23.1936 13.4547 23.9132V15.6666H16.6994L17.3714 12H13.4494V10.7033C13.4494 8.76397 14.208 8.01997 16.176 8.01997C16.7854 8.01997 17.28 8.03464 17.5634 8.0633V4.7413C17.0254 4.59264 15.7154 4.44397 14.9567 4.44397C10.9487 4.44397 9.10069 6.3353 9.10069 10.42V12H6.62402V15.6673H9.10069L9.10136 23.6473Z" fill="white"/>
</g>
</g>
</svg>
