<svg width="24" height="24" viewBox="0 0 24 24" fill="none" xmlns="http://www.w3.org/2000/svg">
<path d="M13.454 23.9133C19.396 23.194 24 18.1347 24 12C24 5.37267 18.6273 0 12 0C5.37267 0 0 5.37267 0 12C0 17.628 3.874 22.3507 9.10133 23.6473L9.33333 22.6667H13L13.454 23.9133Z" fill="#0866FF"/>
<path d="M9.10069 23.6472V15.6672H6.62402V11.9998H9.10069V10.4198C9.10069 6.33518 10.9487 4.44385 14.9567 4.44385C15.7154 4.44385 17.0254 4.59251 17.5634 4.74118V8.06318C17.28 8.03451 16.7854 8.01985 16.176 8.01985C14.208 8.01985 13.4494 8.76385 13.4494 10.7032V11.9998H17.3714L16.6994 15.6665H13.4547V23.9132C11.9994 24.0884 10.5245 23.9983 9.10136 23.6472H9.10069Z" fill="white"/>
</svg>
