<svg width="24" height="24" viewBox="0 0 24 24" fill="none" xmlns="http://www.w3.org/2000/svg">
<g id="Platform">
<path id="Rectangle" fill-rule="evenodd" clip-rule="evenodd" d="M21.3705 1H2.62462C1.72798 1 1 1.71052 1 2.58522V21.4127C1 22.2887 1.72798 23 2.62462 23H21.3705C22.2675 23 23 22.2887 23 21.4127V2.58522C23 1.71052 22.2675 1 21.3705 1Z" fill="#0A66C2"/>
<path id="Combined Shape" fill-rule="evenodd" clip-rule="evenodd" d="M7.49704 19.7463H4.24689V9.24779H7.49704V19.7463ZM7.75506 5.92016C7.75506 4.87679 6.91099 4.02856 5.87181 4.02856C4.83102 4.02856 3.98938 4.87679 3.98938 5.92016C3.98938 6.96475 4.83102 7.81256 5.87181 7.81256C6.91099 7.81256 7.75506 6.96475 7.75506 5.92016ZM12.6508 9.24799H9.53446V19.7469H12.7822V14.5537C12.7822 13.1835 13.0401 11.8574 14.7307 11.8574C16.3954 11.8574 16.4189 13.4235 16.4189 14.6412V19.7469H19.6642V13.9882C19.6642 11.1604 19.057 8.98643 15.7695 8.98643C14.1892 8.98643 13.1294 9.85706 12.6954 10.6825H12.6508V9.24799Z" fill="#FFFFFE"/>
</g>
</svg>
