<svg width="24" height="24" viewBox="0 0 24 24" fill="none" xmlns="http://www.w3.org/2000/svg">
<g id="Platform">
<path id="LinkedIn Icon" fill-rule="evenodd" clip-rule="evenodd" d="M2.62462 1H21.3705C22.2675 1 23 1.71052 23 2.58522V21.4127C23 22.2887 22.2675 23 21.3705 23H2.62462C1.72798 23 1 22.2887 1 21.4127V2.58522C1 1.71052 1.72798 1 2.62462 1ZM4.24676 19.7463H7.49691V9.2478H4.24676V19.7463ZM5.87169 4.02858C6.91086 4.02858 7.75494 4.8768 7.75494 5.92017C7.75494 6.96476 6.91086 7.81258 5.87169 7.81258C4.8309 7.81258 3.98926 6.96476 3.98926 5.92017C3.98926 4.8768 4.8309 4.02858 5.87169 4.02858ZM9.53433 9.248H12.6506V10.6825H12.6953C13.1293 9.85707 14.1891 8.98644 15.7694 8.98644C19.0568 8.98644 19.664 11.1604 19.664 13.9882V19.7469H16.4187V14.6413C16.4187 13.4235 16.3952 11.8574 14.7306 11.8574C13.04 11.8574 12.7821 13.1836 12.7821 14.5537V19.7469H9.53433V9.248Z" fill="white"/>
</g>
</svg>
