<svg width="22" height="24" viewBox="0 0 22 24" fill="none" xmlns="http://www.w3.org/2000/svg">
<g id="Group 59">
<path id="Vector" d="M8.62464 9.44972V8.51288C8.30346 8.46896 7.97711 8.44141 7.64388 8.44141C3.63127 8.44141 0.366943 11.7057 0.366943 15.7183C0.366943 18.1802 1.59742 20.3587 3.4737 21.6761C2.26217 20.3759 1.51906 18.6339 1.51906 16.7215C1.51906 12.7666 4.69126 9.541 8.62464 9.44886V9.44972Z" fill="#25F4EE"/>
<path id="Vector_2" d="M8.79573 20.0458C10.5859 20.0458 12.0463 18.6216 12.1126 16.8478L12.1186 1.00315H15.0135C14.9533 0.677665 14.9206 0.342707 14.9206 0H10.9665L10.9605 15.8446C10.8942 17.6193 9.43379 19.0426 7.64362 19.0426C7.08736 19.0426 6.56297 18.9032 6.10229 18.6612C6.70677 19.4982 7.68753 20.0467 8.7966 20.0467L8.79573 20.0458Z" fill="#25F4EE"/>
<path id="Vector_3" d="M20.4212 6.3806V5.49973C19.3173 5.49973 18.2883 5.17166 17.4255 4.60938C18.1936 5.49111 19.2372 6.12745 20.4212 6.3806Z" fill="#25F4EE"/>
<path id="Vector_4" d="M17.4255 4.60886C16.5843 3.64274 16.0728 2.38126 16.0728 1.00269H15.0137C15.2927 2.5087 16.1865 3.80118 17.4255 4.60886Z" fill="#FE2C55"/>
<path id="Vector_5" d="M7.64381 12.3957C5.81145 12.3957 4.32007 13.8862 4.32007 15.7195C4.32007 16.9956 5.04423 18.1046 6.10163 18.6609C5.70726 18.115 5.47219 17.4459 5.47219 16.7226C5.47219 14.8903 6.96356 13.3989 8.79593 13.3989C9.13778 13.3989 9.46585 13.4557 9.77669 13.5521V9.51629C9.45551 9.47238 9.12917 9.44482 8.79593 9.44482C8.73824 9.44482 8.68141 9.44827 8.62372 9.44913V12.549C8.31373 12.4517 7.9848 12.3957 7.64295 12.3957H7.64381Z" fill="#FE2C55"/>
<path id="Vector_6" d="M20.4212 6.38086V9.45403C18.371 9.45403 16.4714 8.79789 14.9206 7.68539V15.7201C14.9206 19.7327 11.6563 22.997 7.64369 22.997C6.0929 22.997 4.6549 22.5079 3.47351 21.6778C4.80301 23.1046 6.69651 24.0002 8.79667 24.0002C12.8093 24.0002 16.0736 20.7358 16.0736 16.7232V8.68854C17.6244 9.8019 19.5239 10.4572 21.5741 10.4572V6.50313C21.1789 6.50313 20.7931 6.46008 20.422 6.38086H20.4212Z" fill="#FE2C55"/>
<path id="Vector_7" d="M14.9207 15.7193V7.68462C16.4715 8.79799 18.371 9.45326 20.4212 9.45326V6.38009C19.2372 6.12694 18.1936 5.4906 17.4255 4.60886C16.1865 3.80118 15.2927 2.5087 15.0137 1.00269H12.1187L12.1127 16.8473C12.0464 18.622 10.586 20.0453 8.79586 20.0453C7.68679 20.0453 6.70603 19.4977 6.10156 18.6599C5.0433 18.1028 4.31999 16.9945 4.31999 15.7184C4.31999 13.8861 5.81137 12.3947 7.64374 12.3947C7.98559 12.3947 8.31366 12.4515 8.6245 12.548V9.4481C4.69112 9.54023 1.51892 12.7658 1.51892 16.7207C1.51892 18.634 2.26203 20.3751 3.47356 21.6753C4.65581 22.5054 6.09295 22.9945 7.64374 22.9945C11.6563 22.9945 14.9207 19.7302 14.9207 15.7176V15.7193Z" fill="white"/>
</g>
</svg>
