<svg width="24" height="24" viewBox="0 0 24 24" fill="none" xmlns="http://www.w3.org/2000/svg">
<path fill-rule="evenodd" clip-rule="evenodd" d="M23.4981 6.10976C23.2221 5.08276 22.4091 4.27376 21.3761 3.99876C19.5041 3.49976 11.9991 3.49976 11.9991 3.49976C11.9991 3.49976 4.49515 3.49976 2.62315 3.99876C1.59015 4.27376 0.777146 5.08276 0.501145 6.10976C-0.000854492 7.97176 -0.000854492 11.8578 -0.000854492 11.8578C-0.000854492 11.8578 -0.000854492 15.7418 0.501145 17.6048C0.777146 18.6318 1.59015 19.4408 2.62315 19.7148C4.49515 20.2138 11.9991 20.2138 11.9991 20.2138C11.9991 20.2138 19.5041 20.2138 21.3761 19.7148C22.4091 19.4408 23.2221 18.6318 23.4981 17.6048C23.9991 15.7418 23.9991 11.8578 23.9991 11.8578C23.9991 11.8578 23.9991 7.97176 23.4981 6.10976Z" fill="#FF0000"/>
<path fill-rule="evenodd" clip-rule="evenodd" d="M9.59973 15.4389L15.8347 11.8569L9.59973 8.2749V15.4389Z" fill="white"/>
</svg>
