<svg width="24" height="24" viewBox="0 0 24 24" fill="none" xmlns="http://www.w3.org/2000/svg">
<g id="Platform">
<path id="YouTube Icon" fill-rule="evenodd" clip-rule="evenodd" d="M21.3764 4.499C22.4094 4.774 23.2224 5.583 23.4984 6.61C23.9994 8.472 23.9994 12.358 23.9994 12.358C23.9994 12.358 23.9994 16.242 23.4984 18.105C23.2224 19.132 22.4094 19.941 21.3764 20.215C19.5044 20.714 11.9994 20.714 11.9994 20.714C11.9994 20.714 4.49539 20.714 2.62339 20.215C1.59039 19.941 0.77739 19.132 0.50139 18.105C-0.000610352 16.242 -0.000610352 12.358 -0.000610352 12.358C-0.000610352 12.358 -0.000610352 8.472 0.50139 6.61C0.77739 5.583 1.59039 4.774 2.62339 4.499C4.49539 4 11.9994 4 11.9994 4C11.9994 4 19.5044 4 21.3764 4.499ZM15.835 12.3571L9.60001 15.9391V8.77512L15.835 12.3571Z" fill="white"/>
</g>
</svg>
