<svg width="440" height="256" viewBox="0 0 440 256" fill="none" xmlns="http://www.w3.org/2000/svg">
<g clip-path="url(#clip0_1088_4372)">
<mask id="mask0_1088_4372" style="mask-type:alpha" maskUnits="userSpaceOnUse" x="0" y="0" width="440" height="256">
<rect width="440" height="256" fill="url(#paint0_linear_1088_4372)"/>
</mask>
<g mask="url(#mask0_1088_4372)">
</g>
<rect x="196" y="64" width="48" height="48" rx="24" fill="#1877F2"/>
<path d="M229.342 94.9375L230.406 88H223.75V83.4979C223.75 81.6 224.68 79.75 227.661 79.75H230.688V73.8438C230.688 73.8438 227.941 73.375 225.315 73.375C219.833 73.375 216.25 76.6975 216.25 82.7125V88H210.156V94.9375H216.25V111.708C217.472 111.9 218.724 112 220 112C221.276 112 222.528 111.9 223.75 111.708V94.9375H229.342Z" fill="white"/>
<g filter="url(#filter0_bdi_1088_4372)">
<rect x="74" y="152" width="89" height="36" rx="18" fill="white" fill-opacity="0.1" shape-rendering="crispEdges"/>
<g clip-path="url(#clip1_1088_4372)">
<rect x="84" y="162" width="2" height="16" rx="1" fill="#5AA6FF"/>
<path fill-rule="evenodd" clip-rule="evenodd" d="M93 162H88V170H92L91.7236 170.553C91.3912 171.218 91.8747 172 92.618 172H100L98 168L100 164H94V163C94 162.448 93.5523 162 93 162Z" fill="#5AA6FF"/>
</g>
<path d="M111.022 164.85H114.368C116.594 164.85 118.68 165.2 118.68 168.042C118.68 170.604 116.79 171.164 114.396 171.164H112.8V175H111.022V164.85ZM114.368 166.278H112.8V169.708H114.452C115.796 169.708 116.832 169.512 116.832 168.056C116.832 166.418 115.614 166.278 114.368 166.278ZM124.186 172.032V171.458C121.806 171.682 120.84 172.032 120.84 172.886C120.84 173.544 121.386 173.936 122.226 173.936C123.458 173.936 124.186 173.32 124.186 172.032ZM121.862 175.182C120.224 175.182 119.076 174.3 119.076 172.928C119.076 171.038 121.4 170.59 124.144 170.296V170.156C124.144 168.868 123.416 168.476 122.576 168.476C121.736 168.476 121.106 168.924 121.064 169.834H119.426C119.538 168.308 120.812 167.244 122.632 167.244C124.438 167.244 125.852 168.07 125.81 170.478C125.81 170.842 125.782 171.738 125.782 172.424C125.782 173.376 125.852 174.37 126.006 175H124.48C124.424 174.678 124.382 174.496 124.34 173.978C123.85 174.804 122.982 175.182 121.862 175.182ZM132.493 168.476V167.468H134.159V174.244C134.159 175.462 133.851 176.344 133.249 176.904C132.647 177.464 131.751 177.716 130.575 177.716C128.923 177.716 127.621 177.058 127.355 175.406H129.007C129.161 176.12 129.609 176.4 130.617 176.4C131.359 176.4 131.835 176.19 132.115 175.854C132.395 175.532 132.493 175.07 132.493 174.58V173.698C132.045 174.44 131.261 174.874 130.253 174.874C128.461 174.874 126.977 173.432 126.977 171.08C126.977 168.728 128.461 167.3 130.253 167.3C131.261 167.3 132.045 167.734 132.493 168.476ZM132.563 171.08C132.563 169.4 131.695 168.63 130.617 168.63C129.497 168.63 128.713 169.568 128.713 171.08C128.713 172.634 129.497 173.558 130.617 173.558C131.695 173.558 132.563 172.774 132.563 171.08ZM142.83 171.71H137.216C137.328 173.11 138.308 173.796 139.26 173.796C140.142 173.796 140.814 173.46 141.108 172.746H142.746C142.41 173.95 141.262 175.182 139.33 175.182C136.908 175.182 135.522 173.348 135.522 171.178C135.522 168.91 137.076 167.3 139.218 167.3C141.528 167.3 142.984 169.19 142.83 171.71ZM139.218 168.602C138.434 168.602 137.37 169.078 137.216 170.492H141.136C141.094 169.316 140.198 168.602 139.218 168.602ZM150.095 169.526H148.527C148.345 168.84 147.715 168.574 146.875 168.574C146.147 168.574 145.475 168.896 145.475 169.4C145.475 169.904 145.825 170.17 146.483 170.296L147.547 170.506C149.073 170.8 150.235 171.276 150.235 172.746C150.235 174.314 148.751 175.182 147.043 175.182C145.195 175.182 143.963 174.118 143.781 172.704H145.405C145.559 173.488 146.105 173.922 147.099 173.922C147.981 173.922 148.611 173.558 148.611 172.942C148.611 172.326 148.051 172.06 147.309 171.906L146.175 171.682C144.901 171.416 143.907 170.87 143.907 169.484C143.907 168.154 145.349 167.3 146.973 167.3C148.443 167.3 149.787 168.014 150.095 169.526Z" fill="white"/>
</g>
<g filter="url(#filter1_bdi_1088_4372)">
<rect x="175" y="152" width="90" height="36" rx="18" fill="white" fill-opacity="0.1" shape-rendering="crispEdges"/>
<path fill-rule="evenodd" clip-rule="evenodd" d="M193 169C194.657 169 196 167.657 196 166C196 164.343 194.657 163 193 163C191.343 163 190 164.343 190 166C190 167.657 191.343 169 193 169ZM191.082 171.548C188.983 172.148 187.285 173.695 186.494 175.73L186.414 175.935C186.215 176.448 186.593 177 187.142 177H198.858C199.407 177 199.785 176.448 199.586 175.935L199.506 175.73C198.715 173.695 197.017 172.148 194.918 171.548C193.664 171.19 192.336 171.19 191.082 171.548Z" fill="#62B1FF"/>
<path d="M212.022 164.85H215.368C217.594 164.85 219.68 165.2 219.68 168.042C219.68 170.604 217.79 171.164 215.396 171.164H213.8V175H212.022V164.85ZM215.368 166.278H213.8V169.708H215.452C216.796 169.708 217.832 169.512 217.832 168.056C217.832 166.418 216.614 166.278 215.368 166.278ZM224.722 167.482V169.162C224.442 169.134 224.176 169.12 223.924 169.12C222.874 169.12 222.272 169.54 222.272 171.052V175H220.606V167.468H222.244V168.812C222.65 167.972 223.378 167.468 224.288 167.454C224.414 167.454 224.596 167.468 224.722 167.482ZM226.828 171.248C226.828 172.984 227.752 173.824 228.816 173.824C229.88 173.824 230.804 172.984 230.804 171.248C230.804 169.512 229.88 168.658 228.816 168.658C227.752 168.658 226.828 169.512 226.828 171.248ZM228.816 167.3C230.65 167.3 232.526 168.532 232.526 171.248C232.526 173.978 230.65 175.182 228.816 175.182C226.982 175.182 225.106 173.978 225.106 171.248C225.106 168.532 226.982 167.3 228.816 167.3ZM234.187 167.468V167.006C234.187 165.256 234.845 164.85 236.679 164.85H237.337V166.124H236.861C236.035 166.124 235.853 166.278 235.853 167.062V167.468H237.337V168.672H235.853V175H234.187V168.672H233.137V167.468H234.187ZM238.489 164.85H240.155V166.53H238.489V164.85ZM238.489 167.468H240.155V175H238.489V167.468ZM243.696 164.85V175H242.03V164.85H243.696ZM252.375 171.71H246.761C246.873 173.11 247.853 173.796 248.805 173.796C249.687 173.796 250.359 173.46 250.653 172.746H252.291C251.955 173.95 250.807 175.182 248.875 175.182C246.453 175.182 245.067 173.348 245.067 171.178C245.067 168.91 246.621 167.3 248.763 167.3C251.073 167.3 252.529 169.19 252.375 171.71ZM248.763 168.602C247.979 168.602 246.915 169.078 246.761 170.492H250.681C250.639 169.316 249.743 168.602 248.763 168.602Z" fill="white"/>
</g>
<g filter="url(#filter2_bdi_1088_4372)">
<rect x="277" y="152" width="89" height="36" rx="18" fill="white" fill-opacity="0.1" shape-rendering="crispEdges"/>
<path fill-rule="evenodd" clip-rule="evenodd" d="M298 168C299.105 168 300 167.105 300 166C300 164.895 299.105 164 298 164C296.895 164 296 164.895 296 166C296 167.105 296.895 168 298 168ZM296.421 170.257C294.931 170.754 293.761 171.926 293.264 173.419L293.137 173.799C293.07 174.003 293.035 174.216 293.035 174.431L293.035 177C293.035 177.552 293.479 178 294.031 178H301.968C302.52 178 302.965 177.552 302.965 177V174.43C302.965 174.216 302.93 174.003 302.862 173.799L302.736 173.419C302.239 171.926 301.069 170.754 299.578 170.257C298.554 169.914 297.446 169.914 296.421 170.257Z" fill="#65B5FF" fill-opacity="0.7"/>
<path fill-rule="evenodd" clip-rule="evenodd" d="M292 171C293.105 171 294 170.105 294 169C294 167.895 293.105 167 292 167C290.895 167 290 167.895 290 169C290 170.105 290.895 171 292 171ZM290.421 173.257C288.931 173.754 287.761 174.926 287.264 176.419L287.035 177.106C286.889 177.546 287.216 178 287.678 178H296.322C296.784 178 297.111 177.546 296.965 177.106L296.736 176.419C296.239 174.926 295.069 173.754 293.579 173.257C292.554 172.914 291.446 172.914 290.421 173.257Z" fill="#62B1FF"/>
<path d="M318.488 164.668C320.77 164.668 322.338 165.9 322.772 168.07H321.078C320.742 166.824 319.79 166.124 318.446 166.124C316.71 166.124 315.45 167.398 315.45 169.89C315.45 172.354 316.64 173.726 318.432 173.726C319.636 173.726 321.148 173.194 321.148 171.388V171.192H318.558V169.694H322.8V175H321.4L321.344 173.782C320.742 174.678 319.636 175.182 318.236 175.182C315.352 175.182 313.616 173.082 313.616 169.89C313.616 166.74 315.464 164.668 318.488 164.668ZM328.745 167.482V169.162C328.465 169.134 328.199 169.12 327.947 169.12C326.897 169.12 326.295 169.54 326.295 171.052V175H324.629V167.468H326.267V168.812C326.673 167.972 327.401 167.468 328.311 167.454C328.437 167.454 328.619 167.468 328.745 167.482ZM330.851 171.248C330.851 172.984 331.775 173.824 332.839 173.824C333.903 173.824 334.827 172.984 334.827 171.248C334.827 169.512 333.903 168.658 332.839 168.658C331.775 168.658 330.851 169.512 330.851 171.248ZM332.839 167.3C334.673 167.3 336.549 168.532 336.549 171.248C336.549 173.978 334.673 175.182 332.839 175.182C331.005 175.182 329.129 173.978 329.129 171.248C329.129 168.532 331.005 167.3 332.839 167.3ZM342.566 175V173.964C342.132 174.748 341.362 175.182 340.34 175.182C338.548 175.182 337.82 174.006 337.82 172.214V167.468H339.486V171.808C339.486 172.83 339.626 173.824 340.872 173.824C342.118 173.824 342.566 172.844 342.566 171.486V167.468H344.232V175H342.566ZM347.704 171.234C347.704 172.97 348.558 173.824 349.65 173.824C350.826 173.824 351.512 172.844 351.512 171.234C351.512 169.652 350.826 168.658 349.65 168.658C348.558 168.658 347.704 169.498 347.704 171.234ZM346.108 167.468H347.774V168.476C348.222 167.734 349.006 167.3 350.014 167.3C351.862 167.3 353.248 168.826 353.248 171.234C353.248 173.656 351.862 175.182 350.014 175.182C349.006 175.182 348.222 174.748 347.774 174.006V177.45H346.108V167.468Z" fill="white"/>
</g>
<path d="M118.5 147.5V92.5C118.5 90.2909 120.291 88.5 122.5 88.5H192" stroke="url(#paint1_linear_1088_4372)" stroke-opacity="0.2" stroke-linecap="round" stroke-linejoin="round" stroke-dasharray="0.5 3"/>
<path d="M155.5 88.5H133.5" stroke="url(#paint2_linear_1088_4372)" stroke-linecap="round" stroke-linejoin="round"/>
<path d="M322 147.5V92.5C322 90.2909 320.209 88.5 318 88.5H248.5" stroke="url(#paint3_linear_1088_4372)" stroke-opacity="0.2" stroke-linecap="round" stroke-linejoin="round" stroke-dasharray="0.5 3"/>
<path d="M220 146.5V117.5" stroke="url(#paint4_linear_1088_4372)" stroke-opacity="0.2" stroke-linecap="round" stroke-linejoin="round" stroke-dasharray="0.5 3"/>
</g>
<defs>
<filter id="filter0_bdi_1088_4372" x="48" y="126" width="141" height="88" filterUnits="userSpaceOnUse" color-interpolation-filters="sRGB">
<feFlood flood-opacity="0" result="BackgroundImageFix"/>
<feGaussianBlur in="BackgroundImageFix" stdDeviation="2"/>
<feComposite in2="SourceAlpha" operator="in" result="effect1_backgroundBlur_1088_4372"/>
<feColorMatrix in="SourceAlpha" type="matrix" values="0 0 0 0 0 0 0 0 0 0 0 0 0 0 0 0 0 0 127 0" result="hardAlpha"/>
<feOffset/>
<feGaussianBlur stdDeviation="13"/>
<feComposite in2="hardAlpha" operator="out"/>
<feColorMatrix type="matrix" values="0 0 0 0 0 0 0 0 0 0 0 0 0 0 0 0 0 0 0.2 0"/>
<feBlend mode="normal" in2="effect1_backgroundBlur_1088_4372" result="effect2_dropShadow_1088_4372"/>
<feBlend mode="normal" in="SourceGraphic" in2="effect2_dropShadow_1088_4372" result="shape"/>
<feColorMatrix in="SourceAlpha" type="matrix" values="0 0 0 0 0 0 0 0 0 0 0 0 0 0 0 0 0 0 127 0" result="hardAlpha"/>
<feOffset dy="1"/>
<feGaussianBlur stdDeviation="0.5"/>
<feComposite in2="hardAlpha" operator="arithmetic" k2="-1" k3="1"/>
<feColorMatrix type="matrix" values="0 0 0 0 1 0 0 0 0 1 0 0 0 0 1 0 0 0 0.06 0"/>
<feBlend mode="normal" in2="shape" result="effect3_innerShadow_1088_4372"/>
</filter>
<filter id="filter1_bdi_1088_4372" x="149" y="126" width="142" height="88" filterUnits="userSpaceOnUse" color-interpolation-filters="sRGB">
<feFlood flood-opacity="0" result="BackgroundImageFix"/>
<feGaussianBlur in="BackgroundImageFix" stdDeviation="2"/>
<feComposite in2="SourceAlpha" operator="in" result="effect1_backgroundBlur_1088_4372"/>
<feColorMatrix in="SourceAlpha" type="matrix" values="0 0 0 0 0 0 0 0 0 0 0 0 0 0 0 0 0 0 127 0" result="hardAlpha"/>
<feOffset/>
<feGaussianBlur stdDeviation="13"/>
<feComposite in2="hardAlpha" operator="out"/>
<feColorMatrix type="matrix" values="0 0 0 0 0 0 0 0 0 0 0 0 0 0 0 0 0 0 0.2 0"/>
<feBlend mode="normal" in2="effect1_backgroundBlur_1088_4372" result="effect2_dropShadow_1088_4372"/>
<feBlend mode="normal" in="SourceGraphic" in2="effect2_dropShadow_1088_4372" result="shape"/>
<feColorMatrix in="SourceAlpha" type="matrix" values="0 0 0 0 0 0 0 0 0 0 0 0 0 0 0 0 0 0 127 0" result="hardAlpha"/>
<feOffset dy="1"/>
<feGaussianBlur stdDeviation="0.5"/>
<feComposite in2="hardAlpha" operator="arithmetic" k2="-1" k3="1"/>
<feColorMatrix type="matrix" values="0 0 0 0 1 0 0 0 0 1 0 0 0 0 1 0 0 0 0.06 0"/>
<feBlend mode="normal" in2="shape" result="effect3_innerShadow_1088_4372"/>
</filter>
<filter id="filter2_bdi_1088_4372" x="251" y="126" width="141" height="88" filterUnits="userSpaceOnUse" color-interpolation-filters="sRGB">
<feFlood flood-opacity="0" result="BackgroundImageFix"/>
<feGaussianBlur in="BackgroundImageFix" stdDeviation="2"/>
<feComposite in2="SourceAlpha" operator="in" result="effect1_backgroundBlur_1088_4372"/>
<feColorMatrix in="SourceAlpha" type="matrix" values="0 0 0 0 0 0 0 0 0 0 0 0 0 0 0 0 0 0 127 0" result="hardAlpha"/>
<feOffset/>
<feGaussianBlur stdDeviation="13"/>
<feComposite in2="hardAlpha" operator="out"/>
<feColorMatrix type="matrix" values="0 0 0 0 0 0 0 0 0 0 0 0 0 0 0 0 0 0 0.2 0"/>
<feBlend mode="normal" in2="effect1_backgroundBlur_1088_4372" result="effect2_dropShadow_1088_4372"/>
<feBlend mode="normal" in="SourceGraphic" in2="effect2_dropShadow_1088_4372" result="shape"/>
<feColorMatrix in="SourceAlpha" type="matrix" values="0 0 0 0 0 0 0 0 0 0 0 0 0 0 0 0 0 0 127 0" result="hardAlpha"/>
<feOffset dy="1"/>
<feGaussianBlur stdDeviation="0.5"/>
<feComposite in2="hardAlpha" operator="arithmetic" k2="-1" k3="1"/>
<feColorMatrix type="matrix" values="0 0 0 0 1 0 0 0 0 1 0 0 0 0 1 0 0 0 0.06 0"/>
<feBlend mode="normal" in2="shape" result="effect3_innerShadow_1088_4372"/>
</filter>
<linearGradient id="paint0_linear_1088_4372" x1="220" y1="0" x2="220" y2="256" gradientUnits="userSpaceOnUse">
<stop offset="0.324219" stop-color="#0E0E18"/>
<stop offset="0.863281" stop-color="#0E0E18" stop-opacity="0"/>
</linearGradient>
<linearGradient id="paint1_linear_1088_4372" x1="119" y1="154" x2="215" y2="133" gradientUnits="userSpaceOnUse">
<stop stop-color="white"/>
<stop offset="1" stop-color="white" stop-opacity="0"/>
</linearGradient>
<linearGradient id="paint2_linear_1088_4372" x1="136" y1="89" x2="156" y2="86.5" gradientUnits="userSpaceOnUse">
<stop stop-color="#5383FF"/>
<stop offset="1" stop-color="#5383FF" stop-opacity="0"/>
</linearGradient>
<linearGradient id="paint3_linear_1088_4372" x1="321.5" y1="154" x2="225.5" y2="133" gradientUnits="userSpaceOnUse">
<stop stop-color="white"/>
<stop offset="1" stop-color="white" stop-opacity="0"/>
</linearGradient>
<linearGradient id="paint4_linear_1088_4372" x1="219.5" y1="154" x2="123.5" y2="133" gradientUnits="userSpaceOnUse">
<stop stop-color="white"/>
<stop offset="1" stop-color="white" stop-opacity="0"/>
</linearGradient>
<clipPath id="clip0_1088_4372">
<rect width="440" height="256" fill="white"/>
</clipPath>
<clipPath id="clip1_1088_4372">
<rect width="16" height="16" fill="white" transform="translate(84 162)"/>
</clipPath>
</defs>
</svg>
