<svg width="440" height="256" viewBox="0 0 440 256" fill="none" xmlns="http://www.w3.org/2000/svg">
<path opacity="0.5" d="M43.43 214.88L42.55 214.71C41.4 214.47 40.46 213.89 40.46 212.66C40.46 211.31 41.87 210.62 43.2 210.62C44.64 210.62 45.75 211.27 46.04 212.78H44.81C44.6 211.91 43.85 211.66 43.13 211.66C42.57 211.66 41.74 211.91 41.74 212.62C41.74 213.18 42.19 213.46 42.82 213.58L43.71 213.75C44.98 213.99 46.19 214.47 46.19 215.92C46.19 217.39 44.74 218.13 43.31 218.13C41.58 218.13 40.42 217.2 40.26 215.6H41.51C41.74 216.6 42.37 217.09 43.37 217.09C44.23 217.09 44.92 216.7 44.92 216C44.92 215.25 44.12 215.01 43.43 214.88ZM52.2683 215.65H48.2583C48.3383 216.65 49.0383 217.14 49.7183 217.14C50.3483 217.14 50.8283 216.9 51.0383 216.39H52.2083C51.9683 217.25 51.1483 218.13 49.7683 218.13C48.0383 218.13 47.0483 216.82 47.0483 215.27C47.0483 213.65 48.1583 212.5 49.6883 212.5C51.3383 212.5 52.3783 213.85 52.2683 215.65ZM49.6883 213.43C49.1283 213.43 48.3683 213.77 48.2583 214.78H51.0583C51.0283 213.94 50.3883 213.43 49.6883 213.43ZM54.3881 215.31C54.3881 216.55 54.9981 217.16 55.7781 217.16C56.6181 217.16 57.1081 216.46 57.1081 215.31C57.1081 214.18 56.6181 213.47 55.7781 213.47C54.9981 213.47 54.3881 214.07 54.3881 215.31ZM53.2481 212.62H54.4381V213.34C54.7581 212.81 55.3181 212.5 56.0381 212.5C57.3581 212.5 58.3481 213.59 58.3481 215.31C58.3481 217.04 57.3581 218.13 56.0381 218.13C55.3181 218.13 54.7581 217.82 54.4381 217.29V219.75H53.2481V212.62ZM63.767 218H62.577V212.48H60.957V211.66C62.007 211.63 62.517 211.54 62.887 210.75H63.767V218Z" fill="white"/>
<path opacity="0.5" d="M369.43 214.88L368.55 214.71C367.4 214.47 366.46 213.89 366.46 212.66C366.46 211.31 367.87 210.62 369.2 210.62C370.64 210.62 371.75 211.27 372.04 212.78H370.81C370.6 211.91 369.85 211.66 369.13 211.66C368.57 211.66 367.74 211.91 367.74 212.62C367.74 213.18 368.19 213.46 368.82 213.58L369.71 213.75C370.98 213.99 372.19 214.47 372.19 215.92C372.19 217.39 370.74 218.13 369.31 218.13C367.58 218.13 366.42 217.2 366.26 215.6H367.51C367.74 216.6 368.37 217.09 369.37 217.09C370.23 217.09 370.92 216.7 370.92 216C370.92 215.25 370.12 215.01 369.43 214.88ZM378.268 215.65H374.258C374.338 216.65 375.038 217.14 375.718 217.14C376.348 217.14 376.828 216.9 377.038 216.39H378.208C377.968 217.25 377.148 218.13 375.768 218.13C374.038 218.13 373.048 216.82 373.048 215.27C373.048 213.65 374.158 212.5 375.688 212.5C377.338 212.5 378.378 213.85 378.268 215.65ZM375.688 213.43C375.128 213.43 374.368 213.77 374.258 214.78H377.058C377.028 213.94 376.388 213.43 375.688 213.43ZM380.388 215.31C380.388 216.55 380.998 217.16 381.778 217.16C382.618 217.16 383.108 216.46 383.108 215.31C383.108 214.18 382.618 213.47 381.778 213.47C380.998 213.47 380.388 214.07 380.388 215.31ZM379.248 212.62H380.438V213.34C380.758 212.81 381.318 212.5 382.038 212.5C383.358 212.5 384.348 213.59 384.348 215.31C384.348 217.04 383.358 218.13 382.038 218.13C381.318 218.13 380.758 217.82 380.438 217.29V219.75H379.248V212.62ZM389.877 217.21C390.717 217.21 391.347 216.75 391.347 215.96C391.347 215.03 390.617 214.71 389.537 214.71H389.187V213.72H389.487C390.607 213.72 391.167 213.35 391.167 212.6C391.167 211.87 390.577 211.53 389.907 211.53C389.027 211.53 388.537 212.06 388.427 212.91H387.267C387.377 211.53 388.377 210.62 389.977 210.62C391.187 210.62 392.387 211.17 392.387 212.53C392.387 213.25 391.967 213.85 391.327 214.16C392.197 214.48 392.577 215.19 392.577 215.93C392.577 217.41 391.307 218.13 389.857 218.13C388.187 218.13 387.257 217.03 387.177 215.75H388.337C388.447 216.55 388.937 217.21 389.877 217.21ZM396.243 217.21C397.293 217.21 397.893 216.21 397.893 214.37C397.893 212.53 397.293 211.53 396.243 211.53C395.203 211.53 394.603 212.53 394.603 214.37C394.603 216.21 395.203 217.21 396.243 217.21ZM396.243 218.13C394.323 218.13 393.363 216.6 393.363 214.37C393.363 212.16 394.323 210.62 396.243 210.62C398.183 210.62 399.133 212.16 399.133 214.37C399.133 216.6 398.183 218.13 396.243 218.13Z" fill="white"/>
<path d="M44 195H396" stroke="white" stroke-opacity="0.1"/>
<path d="M44 195V96" stroke="white" stroke-opacity="0.11" stroke-dasharray="1 2"/>
<path d="M76 195V96" stroke="white" stroke-opacity="0.11" stroke-dasharray="1 2"/>
<path d="M108 195V64" stroke="white" stroke-opacity="0.11" stroke-dasharray="1 2"/>
<path d="M140 195V40" stroke="white" stroke-opacity="0.11" stroke-dasharray="1 2"/>
<path d="M172 195V40" stroke="white" stroke-opacity="0.11" stroke-dasharray="1 2"/>
<path d="M204 195V40" stroke="white" stroke-opacity="0.11" stroke-dasharray="1 2"/>
<path d="M236 195V40" stroke="white" stroke-opacity="0.11" stroke-dasharray="1 2"/>
<path d="M268 195V40" stroke="white" stroke-opacity="0.11" stroke-dasharray="1 2"/>
<path d="M300 195V40" stroke="#5383FF"/>
<path d="M332 195V40" stroke="white" stroke-opacity="0.11" stroke-dasharray="1 2"/>
<path d="M364 195V40" stroke="white" stroke-opacity="0.11" stroke-dasharray="1 2"/>
<path d="M396 195V40" stroke="white" stroke-opacity="0.11" stroke-dasharray="1 2"/>
<path d="M43.8281 175.512C59.9661 171.512 98.2936 163.312 122.501 162.512C152.759 161.512 196.13 135.512 213.276 131.512C230.423 127.512 289.932 116.512 309.095 115.512C324.426 114.712 372.638 77.1789 394.828 58.5122" stroke="#5383FF" stroke-width="2" stroke-linecap="round"/>
<path d="M122.501 162.512C98.2936 163.312 59.9661 171.512 43.8281 175.512V195H395.828V58.5122C373.638 77.1789 324.426 114.712 309.095 115.512C289.932 116.512 230.423 127.512 213.276 131.512C196.13 135.512 152.759 161.512 122.501 162.512Z" fill="#5383FF" fill-opacity="0.1"/>
<path opacity="0.5" d="M43.33 54V47.81H41.05V46.75H46.88V47.81H44.6V54H43.33ZM47.5205 51.32C47.5205 52.56 48.1805 53.16 48.9405 53.16C49.7005 53.16 50.3605 52.56 50.3605 51.32C50.3605 50.08 49.7005 49.47 48.9405 49.47C48.1805 49.47 47.5205 50.08 47.5205 51.32ZM48.9405 48.5C50.2505 48.5 51.5905 49.38 51.5905 51.32C51.5905 53.27 50.2505 54.13 48.9405 54.13C47.6305 54.13 46.2905 53.27 46.2905 51.32C46.2905 49.38 47.6305 48.5 48.9405 48.5ZM52.7384 48.62V47.2H53.9284V48.62H55.0084V49.48H53.9284V52.41C53.9284 52.96 54.0584 53.09 54.5684 53.09H54.9984V54H54.1184C52.9684 54 52.7384 53.69 52.7384 52.59V49.48H51.9384V48.62H52.7384ZM59.2969 51.88V51.47C57.5969 51.63 56.9069 51.88 56.9069 52.49C56.9069 52.96 57.2969 53.24 57.8969 53.24C58.7769 53.24 59.2969 52.8 59.2969 51.88ZM57.6369 54.13C56.4669 54.13 55.6469 53.5 55.6469 52.52C55.6469 51.17 57.3069 50.85 59.2669 50.64V50.54C59.2669 49.62 58.7469 49.34 58.1469 49.34C57.5469 49.34 57.0969 49.66 57.0669 50.31H55.8969C55.9769 49.22 56.8869 48.46 58.1869 48.46C59.4769 48.46 60.4869 49.05 60.4569 50.77C60.4569 51.03 60.4369 51.67 60.4369 52.16C60.4369 52.84 60.4869 53.55 60.5969 54H59.5069C59.4669 53.77 59.4369 53.64 59.4069 53.27C59.0569 53.86 58.4369 54.13 57.6369 54.13ZM62.8502 46.75V54H61.6602V46.75H62.8502ZM67.1342 48.62L68.3742 52.46L69.6042 48.62H70.8442L68.9042 54H67.7842L65.8242 48.62H67.1342ZM71.5138 46.75H72.7038V47.95H71.5138V46.75ZM71.5138 48.62H72.7038V54H71.5138V48.62ZM78.903 51.65H74.893C74.973 52.65 75.673 53.14 76.353 53.14C76.983 53.14 77.463 52.9 77.673 52.39H78.843C78.603 53.25 77.783 54.13 76.403 54.13C74.673 54.13 73.683 52.82 73.683 51.27C73.683 49.65 74.793 48.5 76.323 48.5C77.973 48.5 79.013 49.85 78.903 51.65ZM76.323 49.43C75.763 49.43 75.003 49.77 74.893 50.78H77.693C77.663 49.94 77.023 49.43 76.323 49.43ZM81.3038 52.44L82.2238 48.62H83.4538L84.3838 52.44L85.1738 48.62H86.4638L85.0338 54H83.9038L82.8438 50.02L81.7838 54H80.6538L79.2238 48.62H80.5138L81.3038 52.44ZM91.3678 50.09H90.2478C90.1178 49.6 89.6678 49.41 89.0678 49.41C88.5478 49.41 88.0678 49.64 88.0678 50C88.0678 50.36 88.3178 50.55 88.7878 50.64L89.5478 50.79C90.6378 51 91.4678 51.34 91.4678 52.39C91.4678 53.51 90.4078 54.13 89.1878 54.13C87.8678 54.13 86.9878 53.37 86.8578 52.36H88.0178C88.1278 52.92 88.5178 53.23 89.2278 53.23C89.8578 53.23 90.3078 52.97 90.3078 52.53C90.3078 52.09 89.9078 51.9 89.3778 51.79L88.5678 51.63C87.6578 51.44 86.9478 51.05 86.9478 50.06C86.9478 49.11 87.9778 48.5 89.1378 48.5C90.1878 48.5 91.1478 49.01 91.3678 50.09Z" fill="white"/>
<path d="M45.416 80H43.736V71.04H41.096V69.904C42.744 69.856 43.64 69.648 44.216 68.4H45.416V80ZM51.5969 78.864C52.9409 78.864 54.0449 77.904 54.0449 76.224C54.0449 74.4 52.7809 73.584 51.5649 73.584C50.4289 73.584 49.6449 74.192 49.3889 74.832L47.7729 74.736L48.5409 68.4H55.3249V69.92H49.9009L49.5169 73.024C50.1089 72.496 50.9569 72.224 51.9649 72.224C53.9809 72.224 55.7889 73.6 55.7889 76.208C55.7889 78.832 53.8049 80.208 51.5809 80.208C48.9089 80.208 47.5809 78.464 47.4049 76.544H49.0689C49.2609 77.952 50.0129 78.864 51.5969 78.864ZM61.3 78.864C62.644 78.864 63.748 77.904 63.748 76.224C63.748 74.4 62.484 73.584 61.268 73.584C60.132 73.584 59.348 74.192 59.092 74.832L57.476 74.736L58.244 68.4H65.028V69.92H59.604L59.22 73.024C59.812 72.496 60.66 72.224 61.668 72.224C63.684 72.224 65.492 73.6 65.492 76.208C65.492 78.832 63.508 80.208 61.284 80.208C58.612 80.208 57.284 78.464 57.108 76.544H58.772C58.964 77.952 59.716 78.864 61.3 78.864ZM66.8346 80V78H68.8346V80.144L67.7946 82.368H66.7546L67.7146 80H66.8346ZM71.7166 76.288C71.7166 77.872 72.6926 78.864 74.1166 78.864C75.5246 78.864 76.5326 77.84 76.5326 76.288C76.5326 74.72 75.5406 73.664 74.1326 73.664C72.7086 73.664 71.7166 74.72 71.7166 76.288ZM74.2606 69.52C72.5806 69.52 71.6046 71.216 71.5566 73.76C72.0846 72.928 73.0286 72.272 74.4846 72.272C76.6286 72.272 78.2766 73.856 78.2766 76.224C78.2766 78.464 76.6286 80.208 74.1326 80.208C71.1886 80.208 69.8446 78.064 69.8446 74.576C69.8446 71.248 71.0446 68.192 74.4206 68.192C76.7566 68.192 77.8606 69.68 78.0686 71.2H76.3246C76.1486 70.112 75.3646 69.52 74.2606 69.52ZM83.8 78.864C85.144 78.864 86.248 77.904 86.248 76.224C86.248 74.4 84.984 73.584 83.768 73.584C82.632 73.584 81.848 74.192 81.592 74.832L79.976 74.736L80.744 68.4H87.528V69.92H82.104L81.72 73.024C82.312 72.496 83.16 72.224 84.168 72.224C86.184 72.224 87.992 73.6 87.992 76.208C87.992 78.832 86.008 80.208 83.784 80.208C81.112 80.208 79.784 78.464 79.608 76.544H81.272C81.464 77.952 82.216 78.864 83.8 78.864ZM93.5031 68.192C95.6471 68.192 97.2311 69.28 97.2311 71.248C97.2311 73.792 94.6711 76.112 91.2951 78.496H97.5351V80H89.1351V78.56C93.1191 75.52 95.4871 73.44 95.4871 71.424C95.4871 70.256 94.7191 69.52 93.4551 69.52C92.2711 69.52 91.1191 70.192 91.1191 72.064H89.4231C89.3751 69.744 91.0231 68.192 93.5031 68.192Z" fill="white"/>
<g filter="url(#filter0_di_1089_7289)">
<circle cx="300" cy="117" r="5" fill="url(#paint0_linear_1089_7289)"/>
</g>
<g opacity="0.8" filter="url(#filter1_f_1089_7289)">
<circle cx="300" cy="117" r="17" stroke="#5785FF" stroke-width="1.5"/>
</g>
<g opacity="0.5" filter="url(#filter2_f_1089_7289)">
<circle cx="300" cy="117" r="25" stroke="#5785FF" stroke-width="1.5"/>
</g>
<g opacity="0.3" filter="url(#filter3_f_1089_7289)">
<circle cx="300" cy="117" r="33" stroke="#5785FF" stroke-width="1.5"/>
</g>
<g opacity="0.1" filter="url(#filter4_f_1089_7289)">
<circle cx="299" cy="117" r="40" stroke="#5785FF" stroke-width="1.5"/>
</g>
<defs>
<filter id="filter0_di_1089_7289" x="291" y="108" width="18" height="18" filterUnits="userSpaceOnUse" color-interpolation-filters="sRGB">
<feFlood flood-opacity="0" result="BackgroundImageFix"/>
<feColorMatrix in="SourceAlpha" type="matrix" values="0 0 0 0 0 0 0 0 0 0 0 0 0 0 0 0 0 0 127 0" result="hardAlpha"/>
<feOffset/>
<feGaussianBlur stdDeviation="2"/>
<feComposite in2="hardAlpha" operator="out"/>
<feColorMatrix type="matrix" values="0 0 0 0 0 0 0 0 0 0 0 0 0 0 0 0 0 0 1 0"/>
<feBlend mode="normal" in2="BackgroundImageFix" result="effect1_dropShadow_1089_7289"/>
<feBlend mode="normal" in="SourceGraphic" in2="effect1_dropShadow_1089_7289" result="shape"/>
<feColorMatrix in="SourceAlpha" type="matrix" values="0 0 0 0 0 0 0 0 0 0 0 0 0 0 0 0 0 0 127 0" result="hardAlpha"/>
<feOffset dy="1"/>
<feGaussianBlur stdDeviation="0.5"/>
<feComposite in2="hardAlpha" operator="arithmetic" k2="-1" k3="1"/>
<feColorMatrix type="matrix" values="0 0 0 0 1 0 0 0 0 1 0 0 0 0 1 0 0 0 0.35 0"/>
<feBlend mode="normal" in2="shape" result="effect2_innerShadow_1089_7289"/>
</filter>
<filter id="filter1_f_1089_7289" x="281.25" y="98.25" width="37.5" height="37.5" filterUnits="userSpaceOnUse" color-interpolation-filters="sRGB">
<feFlood flood-opacity="0" result="BackgroundImageFix"/>
<feBlend mode="normal" in="SourceGraphic" in2="BackgroundImageFix" result="shape"/>
<feGaussianBlur stdDeviation="0.5" result="effect1_foregroundBlur_1089_7289"/>
</filter>
<filter id="filter2_f_1089_7289" x="273.25" y="90.25" width="53.5" height="53.5" filterUnits="userSpaceOnUse" color-interpolation-filters="sRGB">
<feFlood flood-opacity="0" result="BackgroundImageFix"/>
<feBlend mode="normal" in="SourceGraphic" in2="BackgroundImageFix" result="shape"/>
<feGaussianBlur stdDeviation="0.5" result="effect1_foregroundBlur_1089_7289"/>
</filter>
<filter id="filter3_f_1089_7289" x="265.25" y="82.25" width="69.5" height="69.5" filterUnits="userSpaceOnUse" color-interpolation-filters="sRGB">
<feFlood flood-opacity="0" result="BackgroundImageFix"/>
<feBlend mode="normal" in="SourceGraphic" in2="BackgroundImageFix" result="shape"/>
<feGaussianBlur stdDeviation="0.5" result="effect1_foregroundBlur_1089_7289"/>
</filter>
<filter id="filter4_f_1089_7289" x="257.25" y="75.25" width="83.5" height="83.5" filterUnits="userSpaceOnUse" color-interpolation-filters="sRGB">
<feFlood flood-opacity="0" result="BackgroundImageFix"/>
<feBlend mode="normal" in="SourceGraphic" in2="BackgroundImageFix" result="shape"/>
<feGaussianBlur stdDeviation="0.5" result="effect1_foregroundBlur_1089_7289"/>
</filter>
<linearGradient id="paint0_linear_1089_7289" x1="300" y1="112" x2="300" y2="122" gradientUnits="userSpaceOnUse">
<stop stop-color="#7DA2FF"/>
<stop offset="1" stop-color="#5383FF"/>
</linearGradient>
</defs>
</svg>
