<svg width="1440" height="392" viewBox="0 0 1440 392" fill="none" xmlns="http://www.w3.org/2000/svg">
<mask id="mask0_1088_5086" style="mask-type:alpha" maskUnits="userSpaceOnUse" x="0" y="0" width="1453" height="392">
<path d="M26.9102 0L1452.84 200.775L1425.94 391.89L0.000666395 191.115L26.9102 0Z" fill="url(#paint0_linear_1088_5086)"/>
</mask>
<g mask="url(#mask0_1088_5086)">
<g filter="url(#filter0_d_1088_5086)">
<path d="M0.206345 67.8385C0.206345 67.8385 274.252 225.716 724.758 207.083C1175.26 188.451 1456 298.797 1456 298.797" stroke="#8E9AFF" stroke-width="0.75"/>
</g>
<g filter="url(#filter1_d_1088_5086)">
<path d="M-3.0263 86.866C-3.0263 86.866 275.058 237.516 724.922 207.097C1174.79 176.678 1458.31 279.637 1458.31 279.637" stroke="#4253E7" stroke-width="0.75"/>
</g>
<path d="M363.445 177.517C302.832 168.505 248.956 156.893 202.453 144.666" stroke="url(#paint1_linear_1088_5086)" stroke-width="0.75"/>
<path d="M1187.57 205.692C1132.09 198.307 1068.99 192.228 999.048 189.04" stroke="url(#paint2_linear_1088_5086)" stroke-width="0.75"/>
<g filter="url(#filter2_d_1088_5086)">
<path d="M-3.505 82.0409C-3.505 82.0409 274.58 232.691 724.444 202.272C1174.31 171.853 1457.84 274.812 1457.84 274.812" stroke="#4253E7" stroke-width="0.75"/>
</g>
<g filter="url(#filter3_d_1088_5086)">
<path d="M-7.53405 101.829C-7.53405 101.829 273.137 247.603 722.402 209.337C1171.67 171.071 1456.95 269.067 1456.95 269.067" stroke="#537FFF" stroke-width="0.75"/>
</g>
<path d="M891.155 216.58C850.298 217.192 807.593 218.881 763.164 221.891" stroke="url(#paint3_linear_1088_5086)" stroke-width="0.75"/>
<g filter="url(#filter4_d_1088_5086)">
<path d="M-9.1502 102.639C-9.1502 102.639 274.023 243.492 722.551 197.392C1171.08 151.291 1458.03 244.293 1458.03 244.293" stroke="#4253E7" stroke-width="0.75"/>
</g>
<path d="M571.722 190.117C484.039 188.307 404.927 179.946 335.449 168.352" stroke="url(#paint4_linear_1088_5086)" stroke-opacity="0.4" stroke-width="0.75" stroke-linecap="round"/>
<path d="M0.206345 67.8385C0.206345 67.8385 274.252 225.716 724.758 207.083C1175.26 188.451 1456 298.797 1456 298.797" stroke="#8E9AFF" stroke-width="0.75"/>
<path d="M-3.0263 86.866C-3.0263 86.866 275.058 237.516 724.922 207.097C1174.79 176.678 1458.31 279.637 1458.31 279.637" stroke="#4253E7" stroke-width="0.75"/>
<path d="M363.445 177.517C302.832 168.505 248.956 156.893 202.453 144.666" stroke="url(#paint5_linear_1088_5086)" stroke-width="0.75"/>
<path d="M1187.57 205.692C1132.09 198.307 1068.99 192.228 999.048 189.04" stroke="url(#paint6_linear_1088_5086)" stroke-width="0.75"/>
<path d="M-3.505 82.0409C-3.505 82.0409 274.58 232.691 724.444 202.272C1174.31 171.853 1457.84 274.812 1457.84 274.812" stroke="#4253E7" stroke-width="0.75"/>
<path d="M-7.536 101.828C-7.536 101.828 273.135 247.602 722.4 209.336C1171.66 171.07 1456.95 269.066 1456.95 269.066" stroke="#537FFF" stroke-width="0.75"/>
<path d="M891.153 216.581C850.296 217.193 807.591 218.882 763.162 221.892" stroke="url(#paint7_linear_1088_5086)" stroke-width="0.75"/>
<path d="M-9.1502 102.639C-9.1502 102.639 274.023 243.492 722.551 197.392C1171.08 151.291 1458.03 244.293 1458.03 244.293" stroke="#4253E7" stroke-width="0.75"/>
<path d="M571.722 190.117C484.039 188.307 404.927 179.946 335.449 168.352" stroke="url(#paint8_linear_1088_5086)" stroke-opacity="0.4" stroke-width="0.75" stroke-linecap="round"/>
<circle cx="280.055" cy="156.879" r="1" transform="rotate(3.96495 280.055 156.879)" fill="#8793FF" fill-opacity="0.466667"/>
<circle cx="158.684" cy="172.524" r="1" transform="rotate(3.96495 158.684 172.524)" fill="#4253E7"/>
<circle cx="158.684" cy="172.524" r="1" transform="rotate(3.96495 158.684 172.524)" fill="#4253E7"/>
<circle cx="480.158" cy="227.385" r="0.5" transform="rotate(3.96495 480.158 227.385)" fill="white" fill-opacity="0.6"/>
<g filter="url(#filter5_f_1088_5086)">
<circle cx="767.083" cy="216.699" r="1" transform="rotate(3.96495 767.083 216.699)" fill="#4253E7"/>
</g>
<circle cx="1233.33" cy="236.486" r="0.5" transform="rotate(3.96495 1233.33 236.486)" fill="white" fill-opacity="0.6"/>
<circle cx="1371.03" cy="209.443" r="1" transform="rotate(3.96495 1371.03 209.443)" fill="#4253E7"/>
<circle cx="1349.99" cy="194.952" r="1" transform="rotate(3.96495 1349.99 194.952)" fill="#4253E7"/>
<g filter="url(#filter6_f_1088_5086)">
<circle cx="1283.51" cy="279.057" r="0.5" transform="rotate(3.96495 1283.51 279.057)" fill="white" fill-opacity="0.8"/>
</g>
<g filter="url(#filter7_f_1088_5086)">
<circle cx="371.994" cy="153.73" r="0.5" transform="rotate(3.96495 371.994 153.73)" fill="#4253E7"/>
</g>
<circle cx="232.397" cy="193.672" r="1" transform="rotate(3.96495 232.397 193.672)" fill="#4253E7"/>
<g filter="url(#filter8_f_1088_5086)">
<circle cx="203.317" cy="121.489" r="1" transform="rotate(3.96495 203.317 121.489)" fill="#4253E7"/>
</g>
<circle cx="45.5287" cy="149.144" r="0.5" transform="rotate(3.96495 45.5287 149.144)" fill="white" fill-opacity="0.6"/>
<g filter="url(#filter9_f_1088_5086)">
<circle cx="99.8152" cy="96.2718" r="1" transform="rotate(3.96495 99.8152 96.2718)" fill="#8793FF"/>
</g>
</g>
<defs>
<filter id="filter0_d_1088_5086" x="-7.97791" y="59.5151" width="1472.11" height="247.63" filterUnits="userSpaceOnUse" color-interpolation-filters="sRGB">
<feFlood flood-opacity="0" result="BackgroundImageFix"/>
<feColorMatrix in="SourceAlpha" type="matrix" values="0 0 0 0 0 0 0 0 0 0 0 0 0 0 0 0 0 0 127 0" result="hardAlpha"/>
<feOffset/>
<feGaussianBlur stdDeviation="4"/>
<feComposite in2="hardAlpha" operator="out"/>
<feColorMatrix type="matrix" values="0 0 0 0 0.556863 0 0 0 0 0.603922 0 0 0 0 1 0 0 0 0.8 0"/>
<feBlend mode="normal" in2="BackgroundImageFix" result="effect1_dropShadow_1088_5086"/>
<feBlend mode="normal" in="SourceGraphic" in2="effect1_dropShadow_1088_5086" result="shape"/>
</filter>
<filter id="filter1_d_1088_5086" x="-8.20197" y="81.5377" width="1471.64" height="203.451" filterUnits="userSpaceOnUse" color-interpolation-filters="sRGB">
<feFlood flood-opacity="0" result="BackgroundImageFix"/>
<feColorMatrix in="SourceAlpha" type="matrix" values="0 0 0 0 0 0 0 0 0 0 0 0 0 0 0 0 0 0 127 0" result="hardAlpha"/>
<feOffset/>
<feGaussianBlur stdDeviation="2.5"/>
<feComposite in2="hardAlpha" operator="out"/>
<feColorMatrix type="matrix" values="0 0 0 0 0.32549 0 0 0 0 0.466667 0 0 0 0 1 0 0 0 1 0"/>
<feBlend mode="normal" in2="BackgroundImageFix" result="effect1_dropShadow_1088_5086"/>
<feBlend mode="normal" in="SourceGraphic" in2="effect1_dropShadow_1088_5086" result="shape"/>
</filter>
<filter id="filter2_d_1088_5086" x="-8.68066" y="76.7126" width="1471.64" height="203.451" filterUnits="userSpaceOnUse" color-interpolation-filters="sRGB">
<feFlood flood-opacity="0" result="BackgroundImageFix"/>
<feColorMatrix in="SourceAlpha" type="matrix" values="0 0 0 0 0 0 0 0 0 0 0 0 0 0 0 0 0 0 127 0" result="hardAlpha"/>
<feOffset/>
<feGaussianBlur stdDeviation="2.5"/>
<feComposite in2="hardAlpha" operator="out"/>
<feColorMatrix type="matrix" values="0 0 0 0 0.32549 0 0 0 0 0.466667 0 0 0 0 1 0 0 0 1 0"/>
<feBlend mode="normal" in2="BackgroundImageFix" result="effect1_dropShadow_1088_5086"/>
<feBlend mode="normal" in="SourceGraphic" in2="effect1_dropShadow_1088_5086" result="shape"/>
</filter>
<filter id="filter3_d_1088_5086" x="-12.7039" y="96.4977" width="1474.77" height="177.923" filterUnits="userSpaceOnUse" color-interpolation-filters="sRGB">
<feFlood flood-opacity="0" result="BackgroundImageFix"/>
<feColorMatrix in="SourceAlpha" type="matrix" values="0 0 0 0 0 0 0 0 0 0 0 0 0 0 0 0 0 0 127 0" result="hardAlpha"/>
<feOffset/>
<feGaussianBlur stdDeviation="2.5"/>
<feComposite in2="hardAlpha" operator="out"/>
<feColorMatrix type="matrix" values="0 0 0 0 0.32549 0 0 0 0 0.466667 0 0 0 0 1 0 0 0 1 0"/>
<feBlend mode="normal" in2="BackgroundImageFix" result="effect1_dropShadow_1088_5086"/>
<feBlend mode="normal" in="SourceGraphic" in2="effect1_dropShadow_1088_5086" result="shape"/>
</filter>
<filter id="filter4_d_1088_5086" x="-14.3142" y="97.3051" width="1477.45" height="152.344" filterUnits="userSpaceOnUse" color-interpolation-filters="sRGB">
<feFlood flood-opacity="0" result="BackgroundImageFix"/>
<feColorMatrix in="SourceAlpha" type="matrix" values="0 0 0 0 0 0 0 0 0 0 0 0 0 0 0 0 0 0 127 0" result="hardAlpha"/>
<feOffset/>
<feGaussianBlur stdDeviation="2.5"/>
<feComposite in2="hardAlpha" operator="out"/>
<feColorMatrix type="matrix" values="0 0 0 0 0.32549 0 0 0 0 0.466667 0 0 0 0 1 0 0 0 1 0"/>
<feBlend mode="normal" in2="BackgroundImageFix" result="effect1_dropShadow_1088_5086"/>
<feBlend mode="normal" in="SourceGraphic" in2="effect1_dropShadow_1088_5086" result="shape"/>
</filter>
<filter id="filter5_f_1088_5086" x="764.083" y="213.699" width="6.00008" height="6" filterUnits="userSpaceOnUse" color-interpolation-filters="sRGB">
<feFlood flood-opacity="0" result="BackgroundImageFix"/>
<feBlend mode="normal" in="SourceGraphic" in2="BackgroundImageFix" result="shape"/>
<feGaussianBlur stdDeviation="1" result="effect1_foregroundBlur_1088_5086"/>
</filter>
<filter id="filter6_f_1088_5086" x="1282.01" y="277.557" width="3" height="3.00012" filterUnits="userSpaceOnUse" color-interpolation-filters="sRGB">
<feFlood flood-opacity="0" result="BackgroundImageFix"/>
<feBlend mode="normal" in="SourceGraphic" in2="BackgroundImageFix" result="shape"/>
<feGaussianBlur stdDeviation="0.5" result="effect1_foregroundBlur_1088_5086"/>
</filter>
<filter id="filter7_f_1088_5086" x="369.493" y="151.23" width="5.00006" height="5.00012" filterUnits="userSpaceOnUse" color-interpolation-filters="sRGB">
<feFlood flood-opacity="0" result="BackgroundImageFix"/>
<feBlend mode="normal" in="SourceGraphic" in2="BackgroundImageFix" result="shape"/>
<feGaussianBlur stdDeviation="1" result="effect1_foregroundBlur_1088_5086"/>
</filter>
<filter id="filter8_f_1088_5086" x="200.317" y="118.489" width="6.00012" height="6" filterUnits="userSpaceOnUse" color-interpolation-filters="sRGB">
<feFlood flood-opacity="0" result="BackgroundImageFix"/>
<feBlend mode="normal" in="SourceGraphic" in2="BackgroundImageFix" result="shape"/>
<feGaussianBlur stdDeviation="1" result="effect1_foregroundBlur_1088_5086"/>
</filter>
<filter id="filter9_f_1088_5086" x="96.8151" y="93.2719" width="6.00012" height="6" filterUnits="userSpaceOnUse" color-interpolation-filters="sRGB">
<feFlood flood-opacity="0" result="BackgroundImageFix"/>
<feBlend mode="normal" in="SourceGraphic" in2="BackgroundImageFix" result="shape"/>
<feGaussianBlur stdDeviation="1" result="effect1_foregroundBlur_1088_5086"/>
</filter>
<linearGradient id="paint0_linear_1088_5086" x1="13.4554" y1="95.5576" x2="1439.39" y2="296.333" gradientUnits="userSpaceOnUse">
<stop stop-color="#D9D9D9" stop-opacity="0"/>
<stop offset="0.0520833" stop-color="#D9D9D9" stop-opacity="0.709677"/>
<stop offset="0.308407" stop-color="#D9D9D9"/>
<stop offset="0.377427" stop-color="#D9D9D9"/>
<stop offset="0.483755" stop-color="#D9D9D9"/>
<stop offset="0.563613" stop-color="#D9D9D9"/>
<stop offset="0.654793" stop-color="#D9D9D9"/>
<stop offset="0.932292" stop-color="#D9D9D9" stop-opacity="0.444444"/>
<stop offset="1" stop-color="#D9D9D9" stop-opacity="0"/>
</linearGradient>
<linearGradient id="paint1_linear_1088_5086" x1="357.345" y1="177.808" x2="282.196" y2="166.799" gradientUnits="userSpaceOnUse">
<stop stop-color="#4253E7"/>
<stop offset="1" stop-color="#4253E7" stop-opacity="0"/>
</linearGradient>
<linearGradient id="paint2_linear_1088_5086" x1="1177.35" y1="199.35" x2="1092.77" y2="201.404" gradientUnits="userSpaceOnUse">
<stop stop-color="#6B7AFF"/>
<stop offset="1" stop-color="#4253E7" stop-opacity="0"/>
</linearGradient>
<linearGradient id="paint3_linear_1088_5086" x1="892.139" y1="216.753" x2="826.036" y2="229.071" gradientUnits="userSpaceOnUse">
<stop stop-color="#537FFF"/>
<stop offset="1" stop-color="#537FFF" stop-opacity="0"/>
</linearGradient>
<linearGradient id="paint4_linear_1088_5086" x1="561.862" y1="188.428" x2="452.856" y2="184.767" gradientUnits="userSpaceOnUse">
<stop stop-color="#4253E7"/>
<stop offset="1" stop-color="#4253E7" stop-opacity="0"/>
</linearGradient>
<linearGradient id="paint5_linear_1088_5086" x1="357.345" y1="177.808" x2="282.196" y2="166.799" gradientUnits="userSpaceOnUse">
<stop stop-color="#4253E7"/>
<stop offset="1" stop-color="#4253E7" stop-opacity="0"/>
</linearGradient>
<linearGradient id="paint6_linear_1088_5086" x1="1177.35" y1="199.35" x2="1092.77" y2="201.404" gradientUnits="userSpaceOnUse">
<stop stop-color="#6B7AFF"/>
<stop offset="1" stop-color="#4253E7" stop-opacity="0"/>
</linearGradient>
<linearGradient id="paint7_linear_1088_5086" x1="892.137" y1="216.754" x2="826.034" y2="229.072" gradientUnits="userSpaceOnUse">
<stop stop-color="#537FFF"/>
<stop offset="1" stop-color="#537FFF" stop-opacity="0"/>
</linearGradient>
<linearGradient id="paint8_linear_1088_5086" x1="561.862" y1="188.428" x2="452.856" y2="184.767" gradientUnits="userSpaceOnUse">
<stop stop-color="#4253E7"/>
<stop offset="1" stop-color="#4253E7" stop-opacity="0"/>
</linearGradient>
</defs>
</svg>
